<svg xmlns="http://www.w3.org/2000/svg" viewBox="0 0 600 900" width="600" height="900" xmlns:c2pa="http://c2pa.org/manifest"><metadata><c2pa:manifest>AAAWgmp1bWIAAAAeanVtZGMycGEAEQAQgAAAqgA4m3EDYzJwYQAAABZcanVtYgAAAEdqdW1kYzJtYQARABCAAACqADibcQN1cm46YzJwYTo0OWU2OTc4Zi0wNTg2LTQ5YjAtYmFlNi1hMjhhMjYzMWE0NzQAAAADl2p1bWIAAAApanVtZGMyYXMAEQAQgAAAqgA4m3EDYzJwYS5hc3NlcnRpb25zAAAAALxqdW1iAAAARGp1bWRjYm9yABEAEIAAAKoAOJtxE2MycGEuaW5ncmVkaWVudC52MwAAAAAYYzJzaDB1ldinlt+rwNVTSaRb9agAAABwY2JvcqNpZGM6Zm9ybWF0bWltYWdlL3N2Zyt4bWxqaW5zdGFuY2VJRHgseG1wOmlpZDozMjkzNzIyYy0xM2M0LTQ4YTAtYTE1Yy04NDRjYjRiNDMyZGFscmVsYXRpb25zaGlwaHBhcmVudE9mAAAB4mp1bWIAAABBanVtZGNib3IAEQAQgAAAqgA4m3ETYzJwYS5hY3Rpb25zLnYyAAAAABhjMnNo0GVdLnqgbbtQARh4oiBKQAAAAZljYm9yomdhY3Rpb25zgqJmYWN0aW9ua2MycGEub3BlbmVkanBhcmFtZXRlcnOha2luZ3JlZGllbnRzgaJjdXJseC1zZWxmI2p1bWJmPWMycGEuYXNzZXJ0aW9ucy9jMnBhLmluZ3JlZGllbnQudjNkaGFzaFgg2YiXuMbR/x0sXQrJ4BDHbWnNC2jmWvYNYyR0a79a6JmkZmFjdGlvbngdY29tLmFudGhyb3BpYy5jbGF1ZGUucHJvdmlkZWRqcGFyYW1ldGVyc6F4H2NvbS5hbnRocm9waWMub3JpZ2luLWNvbmZpZGVuY2VndW5rbm93bmtkZXNjcmlwdGlvbnhmQ2xhdWRlIHByb3ZpZGVkIHRoaXMgZmlsZSBhdCB0aGUgcmVxdWVzdCBvZiBhIHVzZXIgYW5kIG1heSBoYXZlIGNyZWF0ZWQgb3IgbW9kaWZpZWQgdGhlIGZpbGUgY29udGVudHMubXNvZnR3YXJlQWdlbnShZG5hbWVmQ2xhdWRlcmFsbEFjdGlvbnNJbmNsdWRlZPUAAADIanVtYgAAAEBqdW1kY2JvcgARABCAAACqADibcRNjMnBhLmhhc2guZGF0YQAAAAAYYzJzaB1gAkQkr+ONKnBTrpu+TgYAAACAY2JvcqVjYWxnZnNoYTI1NmNwYWRNAAAAAAAAAAAAAAAAAGRoYXNoWCB+s7zrHwsjlwBwVGLsD64EfOTsbokPs3fEqQbeQNaKnmRuYW1lbmp1bWJmIG1hbmlmZXN0amV4Y2x1c2lvbnOBomVzdGFydBiWZmxlbmd0aBkeBAAAAj5qdW1iAAAAJ2p1bWRjMmNsABEAEIAAAKoAOJtxA2MycGEuY2xhaW0udjIAAAACD2Nib3KlY2FsZ2ZzaGEyNTZpc2lnbmF0dXJleE1zZWxmI2p1bWJmPS9jMnBhL3VybjpjMnBhOjQ5ZTY5NzhmLTA1ODYtNDliMC1iYWU2LWEyOGEyNjMxYTQ3NC9jMnBhLnNpZ25hdHVyZWppbnN0YW5jZUlEeCx4bXA6aWlkOjFiYjZiZmQ0LTJhODEtNGNjOC04NzUxLTA2NjY3OTZhY2ZjOXJjcmVhdGVkX2Fzc2VydGlvbnODomN1cmx4LXNlbGYjanVtYmY9YzJwYS5hc3NlcnRpb25zL2MycGEuaW5ncmVkaWVudC52M2RoYXNoWCDZiJe4xtH/HSxdCsngEMdtac0LaOZa9g1jJHRrv1romaJjdXJseCpzZWxmI2p1bWJmPWMycGEuYXNzZXJ0aW9ucy9jMnBhLmFjdGlvbnMudjJkaGFzaFggRtl6M1ei1TXBkof4e1IMuwAKJDHCQK6KXXKLbimnSpOiY3VybHgpc2VsZiNqdW1iZj1jMnBhLmFzc2VydGlvbnMvYzJwYS5oYXNoLmRhdGFkaGFzaFgg1BJdDaKle1Op5sfZ1trNggZZrkmjljjD7THB9pW3+U50Y2xhaW1fZ2VuZXJhdG9yX2luZm+jZG5hbWVvQW50aHJvcGljIEZpbGVzZ3ZlcnNpb25lMS4wLjBrc3BlY1ZlcnNpb25lMi40LjAAABA4anVtYgAAAChqdW1kYzJjcwARABCAAACqADibcQNjMnBhLnNpZ25hdHVyZQAAABAIY2JvctKEWQISogEmGCFZAgowggIGMIIBjaADAgECAhRA5aAK7sI50L64g/oGQgU9Z1UTADAKBggqhkjOPQQDAzBJMRcwFQYDVQQKEw5BbnRocm9waWMsIFBCQzEuMCwGA1UEAxMlQW50aHJvcGljIENvbnRlbnQgQ3JlZGVudGlhbHMgUm9vdCBDQTAeFw0yNjA4MDcxODQzNTZaFw0yODA4MDYxOTQzNTZaMEQxFzAVBgNVBAoTDkFudGhyb3BpYywgUEJDMSkwJwYDVQQDEyBBbnRocm9waWMgQ2xhdWRlIENvbnRlbnQgU2lnbmluZzBZMBMGByqGSM49AgEGCCqGSM49AwEHA0IABJh6CmvLUBgFFNU0vUKlOVtE6djd17L5SuwX0LemFisBM3dkd/3cyjxFA3Qo5S46fX0/ihY0VZ7mfb9KF703t5OjWDBWMA4GA1UdDwEB/wQEAwIHgDAVBgNVHSUEDjAMBgorBgEEAYPoXgIBMAwGA1UdEwEB/wQCMAAwHwYDVR0jBBgwFoAUzlHiBIFOZFsj+OPEz5o+nMHXXMIwCgYIKoZIzj0EAwMDZwAwZAIwMXMdFJ4BetLLVY7ORuE9noqbbAZOZn/aArXyTwFAZfKrPzxF2vPoJNf1+UCdg1XGAjBwX1zd9WGqYkqmL5SFqw1QySjr1zJfpJM9+1rdDwSPLMOPOjKuiXjoU/pUUeG9RwmhY3BhZFkNngAAAAAAAAAAAAAAAAAAAAAAAAAAAAAAAAAAAAAAAAAAAAAAAAAAAAAAAAAAAAAAAAAAAAAAAAAAAAAAAAAAAAAAAAAAAAAAAAAAAAAAAAAAAAAAAAAAAAAAAAAAAAAAAAAAAAAAAAAAAAAAAAAAAAAAAAAAAAAAAAAAAAAAAAAAAAAAAAAAAAAAAAAAAAAAAAAAAAAAAAAAAAAAAAAAAAAAAAAAAAAAAAAAAAAAAAAAAAAAAAAAAAAAAAAAAAAAAAAAAAAAAAAAAAAAAAAAAAAAAAAAAAAAAAAAAAAAAAAAAAAAAAAAAAAAAAAAAAAAAAAAAAAAAAAAAAAAAAAAAAAAAAAAAAAAAAAAAAAAAAAAAAAAAAAAAAAAAAAAAAAAAAAAAAAAAAAAAAAAAAAAAAAAAAAAAAAAAAAAAAAAAAAAAAAAAAAAAAAAAAAAAAAAAAAAAAAAAAAAAAAAAAAAAAAAAAAAAAAAAAAAAAAAAAAAAAAAAAAAAAAAAAAAAAAAAAAAAAAAAAAAAAAAAAAAAAAAAAAAAAAAAAAAAAAAAAAAAAAAAAAAAAAAAAAAAAAAAAAAAAAAAAAAAAAAAAAAAAAAAAAAAAAAAAAAAAAAAAAAAAAAAAAAAAAAAAAAAAAAAAAAAAAAAAAAAAAAAAAAAAAAAAAAAAAAAAAAAAAAAAAAAAAAAAAAAAAAAAAAAAAAAAAAAAAAAAAAAAAAAAAAAAAAAAAAAAAAAAAAAAAAAAAAAAAAAAAAAAAAAAAAAAAAAAAAAAAAAAAAAAAAAAAAAAAAAAAAAAAAAAAAAAAAAAAAAAAAAAAAAAAAAAAAAAAAAAAAAAAAAAAAAAAAAAAAAAAAAAAAAAAAAAAAAAAAAAAAAAAAAAAAAAAAAAAAAAAAAAAAAAAAAAAAAAAAAAAAAAAAAAAAAAAAAAAAAAAAAAAAAAAAAAAAAAAAAAAAAAAAAAAAAAAAAAAAAAAAAAAAAAAAAAAAAAAAAAAAAAAAAAAAAAAAAAAAAAAAAAAAAAAAAAAAAAAAAAAAAAAAAAAAAAAAAAAAAAAAAAAAAAAAAAAAAAAAAAAAAAAAAAAAAAAAAAAAAAAAAAAAAAAAAAAAAAAAAAAAAAAAAAAAAAAAAAAAAAAAAAAAAAAAAAAAAAAAAAAAAAAAAAAAAAAAAAAAAAAAAAAAAAAAAAAAAAAAAAAAAAAAAAAAAAAAAAAAAAAAAAAAAAAAAAAAAAAAAAAAAAAAAAAAAAAAAAAAAAAAAAAAAAAAAAAAAAAAAAAAAAAAAAAAAAAAAAAAAAAAAAAAAAAAAAAAAAAAAAAAAAAAAAAAAAAAAAAAAAAAAAAAAAAAAAAAAAAAAAAAAAAAAAAAAAAAAAAAAAAAAAAAAAAAAAAAAAAAAAAAAAAAAAAAAAAAAAAAAAAAAAAAAAAAAAAAAAAAAAAAAAAAAAAAAAAAAAAAAAAAAAAAAAAAAAAAAAAAAAAAAAAAAAAAAAAAAAAAAAAAAAAAAAAAAAAAAAAAAAAAAAAAAAAAAAAAAAAAAAAAAAAAAAAAAAAAAAAAAAAAAAAAAAAAAAAAAAAAAAAAAAAAAAAAAAAAAAAAAAAAAAAAAAAAAAAAAAAAAAAAAAAAAAAAAAAAAAAAAAAAAAAAAAAAAAAAAAAAAAAAAAAAAAAAAAAAAAAAAAAAAAAAAAAAAAAAAAAAAAAAAAAAAAAAAAAAAAAAAAAAAAAAAAAAAAAAAAAAAAAAAAAAAAAAAAAAAAAAAAAAAAAAAAAAAAAAAAAAAAAAAAAAAAAAAAAAAAAAAAAAAAAAAAAAAAAAAAAAAAAAAAAAAAAAAAAAAAAAAAAAAAAAAAAAAAAAAAAAAAAAAAAAAAAAAAAAAAAAAAAAAAAAAAAAAAAAAAAAAAAAAAAAAAAAAAAAAAAAAAAAAAAAAAAAAAAAAAAAAAAAAAAAAAAAAAAAAAAAAAAAAAAAAAAAAAAAAAAAAAAAAAAAAAAAAAAAAAAAAAAAAAAAAAAAAAAAAAAAAAAAAAAAAAAAAAAAAAAAAAAAAAAAAAAAAAAAAAAAAAAAAAAAAAAAAAAAAAAAAAAAAAAAAAAAAAAAAAAAAAAAAAAAAAAAAAAAAAAAAAAAAAAAAAAAAAAAAAAAAAAAAAAAAAAAAAAAAAAAAAAAAAAAAAAAAAAAAAAAAAAAAAAAAAAAAAAAAAAAAAAAAAAAAAAAAAAAAAAAAAAAAAAAAAAAAAAAAAAAAAAAAAAAAAAAAAAAAAAAAAAAAAAAAAAAAAAAAAAAAAAAAAAAAAAAAAAAAAAAAAAAAAAAAAAAAAAAAAAAAAAAAAAAAAAAAAAAAAAAAAAAAAAAAAAAAAAAAAAAAAAAAAAAAAAAAAAAAAAAAAAAAAAAAAAAAAAAAAAAAAAAAAAAAAAAAAAAAAAAAAAAAAAAAAAAAAAAAAAAAAAAAAAAAAAAAAAAAAAAAAAAAAAAAAAAAAAAAAAAAAAAAAAAAAAAAAAAAAAAAAAAAAAAAAAAAAAAAAAAAAAAAAAAAAAAAAAAAAAAAAAAAAAAAAAAAAAAAAAAAAAAAAAAAAAAAAAAAAAAAAAAAAAAAAAAAAAAAAAAAAAAAAAAAAAAAAAAAAAAAAAAAAAAAAAAAAAAAAAAAAAAAAAAAAAAAAAAAAAAAAAAAAAAAAAAAAAAAAAAAAAAAAAAAAAAAAAAAAAAAAAAAAAAAAAAAAAAAAAAAAAAAAAAAAAAAAAAAAAAAAAAAAAAAAAAAAAAAAAAAAAAAAAAAAAAAAAAAAAAAAAAAAAAAAAAAAAAAAAAAAAAAAAAAAAAAAAAAAAAAAAAAAAAAAAAAAAAAAAAAAAAAAAAAAAAAAAAAAAAAAAAAAAAAAAAAAAAAAAAAAAAAAAAAAAAAAAAAAAAAAAAAAAAAAAAAAAAAAAAAAAAAAAAAAAAAAAAAAAAAAAAAAAAAAAAAAAAAAAAAAAAAAAAAAAAAAAAAAAAAAAAAAAAAAAAAAAAAAAAAAAAAAAAAAAAAAAAAAAAAAAAAAAAAAAAAAAAAAAAAAAAAAAAAAAAAAAAAAAAAAAAAAAAAAAAAAAAAAAAAAAAAAAAAAAAAAAAAAAAAAAAAAAAAAAAAAAAAAAAAAAAAAAAAAAAAAAAAAAAAAAAAAAAAAAAAAAAAAAAAAAAAAAAAAAAAAAAAAAAAAAAAAAAAAAAAAAAAAAAAAAAAAAAAAAAAAAAAAAAAAAAAAAAAAAAAAAAAAAAAAAAAAAAAAAAAAAAAAAAAAAAAAAAAAAAAAAAAAAAAAAAAAAAAAAAAAAAAAAAAAAAAAAAAAAAAAAAAAAAAAAAAAAAAAAAAAAAAAAAAAAAAAAAAAAAAAAAAAAAAAAAAAAAAAAAAAAAAAAAAAAAAAAAAAAAAAAAAAAAAAAAAAAAAAAAAAAAAAAAAAAAAAAAAAAAAAAAAAAAAAAAAAAAAAAAAAAAAAAAAAAAAAAAAAAAAAAAAAAAAAAAAAAAAAAAAAAAAAAAAAAAAAAAAAAAAAAAAAAAAAAAAAAAAAAAAAAAAAAAAAAAAAAAAAAAAAAAAAAAAAAAAAAAAAAAAAAAAAAAAAAAAAAAAAAAAAAAAAAAAAAAAAAAAAAAAAAAAAAAAAAAAAAAAAAAAAAAAAAAAAAAAAAAAAAAAAAAAAAAAAAAAAAAAAAAAAAAAAAAAAAAAAAAAAAAAAAAAAAAAAAAAAAAAAAAAAAAAAAAAAAAAAAAAAAAAAAAAAAAAAAAAAAAAAAAAAAAAAAAAAAAAAAAAAAAAAAAAAAAAAAAAAAAAAAAAAAAAAAAAAAAAAAAAAAAAAAAAAAAAAAAAAAAAAAAAAAAAAAAAAAAAAAAAAAAAAAAAAAAAAAAAAAAAAAAAAAAAAAAAAAAAAAAAAAAAAAAAAAAAAAAAAAAAAAAAAAAAAAAAAAAAAAAAAAAAAAAAAAAAAAAAAAAAAAAAAAAAAAAAAAAAAAAAAAAAAAAAAAAAAAAAAAAAAAAAAAAAAAAAAAAAAAAAAAAAAAAAAAAAAAAAAAAAAAAAAAAAAAAAAAAAAAAAAAAAAAAAAAAAAAAAAAAAAAAAAAAAAAAAAAAAAAAAAAAAAAAAAAAAAAAAAAAAAAAAAAAAAAAAAAAAAAAAAAAAAAAAAAAAAAAAAAAAAAAAAAAAAAAAAAAAAAAAAAAAAAAAAAAAAAAAAAAAAAAAAAAAAAAAAAAAAAAAAAAAAAAAAAAAAAAAAAAAAAAAAAAAAAAAAAAAAAAAAAAAAAAAAAAAAAAAAAAAAAAAAAAAAAAAAAAAAAAAAAAAAAAAAAAAAAAAAAAAAAAAAAAAAAAAAAAAAAAAAAAAAAAAAAAAAAAAAAAAAAAAAAAAAAAAAAAAAAAAAAAAAAAAAAAAAAAAAAAAAAAAAAAAAAAAAAAAAAAAAAAAAAAAAAAAAAAAAAAAAAAAAAAAAAAAAAAAAAAAAAAAAAAAAAAAAAAAAAAAAAAAAAAAAAAAAAAAAAAAAAAAAAAAAAAAAAAAAAAAAAAAAAAAAAAAAAAAAAAAAAAAAAAAAAAAAAAAAAAAAAAAAAAAAAAAAAAAAAAAAAAAAAAAAAAAAAAAAAAAAAAAAAAAAAAAAAAAAAAAAAAAAAAAAAAAAAAAAAAAAAAAAAAAAAAAAAAAAAAAAAAAAAAAPZYQCZvH5C/3uHhmGgkZTKH8PvDMbCxqqjNRc2x4RfN8IYxVLAb9BZb6UL1Yf14GYOuYsUecIS27MTuXO5oH9RTBqc=</c2pa:manifest></metadata>
<defs>
<linearGradient id="fondo" x1="0" y1="0" x2="0" y2="1"><stop offset="0" stop-color="#07111f"/><stop offset=".5" stop-color="#0c1f36"/><stop offset="1" stop-color="#0a1627"/></linearGradient>
<radialGradient id="halo" cx=".5" cy=".39" r=".42"><stop offset="0" stop-color="#3fb6c9" stop-opacity=".30"/><stop offset=".6" stop-color="#3fb6c9" stop-opacity=".07"/><stop offset="1" stop-color="#3fb6c9" stop-opacity="0"/></radialGradient>
<radialGradient id="esfera" cx=".38" cy=".32" r=".75"><stop offset="0" stop-color="#1c4a66"/><stop offset=".7" stop-color="#0f2b45"/><stop offset="1" stop-color="#0a1e33"/></radialGradient>
<radialGradient id="nodo" cx=".5" cy=".5" r=".5"><stop offset="0" stop-color="#fff6d8"/><stop offset=".35" stop-color="#f1c75a"/><stop offset="1" stop-color="#f1c75a" stop-opacity="0"/></radialGradient>
<clipPath id="bola"><circle cx="300" cy="350" r="200"/></clipPath>
</defs>
<rect width="600" height="900" fill="url(#fondo)"/>
<rect width="600" height="900" fill="url(#halo)"/>
<circle cx="378" cy="99" r="1.3" fill="#cfe8f0" fill-opacity="0.28"/>
<circle cx="152" cy="110" r="1" fill="#cfe8f0" fill-opacity="0.27"/>
<circle cx="470" cy="142" r="0.8" fill="#cfe8f0" fill-opacity="0.47"/>
<circle cx="343" cy="91" r="1.3" fill="#cfe8f0" fill-opacity="0.39"/>
<circle cx="548" cy="78" r="0.8" fill="#cfe8f0" fill-opacity="0.35"/>
<circle cx="115" cy="137" r="1" fill="#cfe8f0" fill-opacity="0.45"/>
<circle cx="395" cy="125" r="1.3" fill="#cfe8f0" fill-opacity="0.47"/>
<circle cx="73" cy="89" r="0.8" fill="#cfe8f0" fill-opacity="0.42"/>
<circle cx="83" cy="286" r="1" fill="#cfe8f0" fill-opacity="0.56"/>
<circle cx="550" cy="137" r="1" fill="#cfe8f0" fill-opacity="0.31"/>
<circle cx="259" cy="829" r="0.8" fill="#cfe8f0" fill-opacity="0.52"/>
<circle cx="531" cy="429" r="1.3" fill="#cfe8f0" fill-opacity="0.27"/>
<circle cx="529" cy="331" r="1.3" fill="#cfe8f0" fill-opacity="0.29"/>
<circle cx="107" cy="243" r="1" fill="#cfe8f0" fill-opacity="0.57"/>
<circle cx="83" cy="164" r="1.3" fill="#cfe8f0" fill-opacity="0.33"/>
<circle cx="177" cy="43" r="1" fill="#cfe8f0" fill-opacity="0.44"/>
<circle cx="493" cy="821" r="1.3" fill="#cfe8f0" fill-opacity="0.53"/>
<circle cx="72" cy="95" r="0.8" fill="#cfe8f0" fill-opacity="0.40"/>
<circle cx="97" cy="533" r="0.8" fill="#cfe8f0" fill-opacity="0.25"/>
<circle cx="119" cy="123" r="1" fill="#cfe8f0" fill-opacity="0.46"/>
<circle cx="77" cy="211" r="1" fill="#cfe8f0" fill-opacity="0.30"/>
<circle cx="229" cy="141" r="1" fill="#cfe8f0" fill-opacity="0.60"/>
<circle cx="85" cy="124" r="1" fill="#cfe8f0" fill-opacity="0.51"/>
<circle cx="535" cy="337" r="1.3" fill="#cfe8f0" fill-opacity="0.44"/>
<circle cx="54" cy="473" r="1.3" fill="#cfe8f0" fill-opacity="0.55"/>
<circle cx="300" cy="350" r="200" fill="url(#esfera)" stroke="#5fd0dd" stroke-opacity=".55" stroke-width="1.5"/>
<g clip-path="url(#bola)" fill="none" stroke="#5fd0dd" stroke-opacity=".18" stroke-width="1">
<polyline points="241.2,541.2 247.0,542.8 253.1,544.3 259.3,545.6 265.8,546.7 272.4,547.6 279.2,548.3 286.1,548.8 293.0,549.1 300.0,549.2 307.0,549.1 313.9,548.8 320.8,548.3 327.6,547.6 334.2,546.7 340.7,545.6 346.9,544.3 353.0,542.8 358.8,541.2"/>
<polyline points="135.3,463.3 139.4,468.1 144.3,472.7 150.0,477.2 156.4,481.6 163.5,485.7 171.3,489.6 179.7,493.3 188.7,496.7 198.2,499.9 208.2,502.7 218.7,505.3 229.6,507.5 240.8,509.4 252.3,511.0 264.0,512.2 275.9,513.1 287.9,513.7 300.0,513.8 312.1,513.7 324.1,513.1 336.0,512.2 347.7,511.0 359.2,509.4 370.4,507.5 381.3,505.3 391.8,502.7 401.8,499.9 411.3,496.7 420.3,493.3 428.7,489.6 436.5,485.7 443.6,481.6 450.0,477.2 455.7,472.7 460.6,468.1 464.7,463.3"/>
<polyline points="100.1,352.9 101.1,358.8 103.0,364.7 105.9,370.4 109.8,376.1 114.6,381.7 120.2,387.1 126.8,392.3 134.2,397.3 142.4,402.0 151.4,406.6 161.1,410.8 171.4,414.7 182.4,418.4 194.0,421.7 206.1,424.6 218.7,427.2 231.6,429.4 244.9,431.2 258.4,432.7 272.2,433.7 286.0,434.3 300.0,434.5 314.0,434.3 327.8,433.7 341.6,432.7 355.1,431.2 368.4,429.4 381.3,427.2 393.9,424.6 406.0,421.7 417.6,418.4 428.6,414.7 438.9,410.8 448.6,406.6 457.6,402.0 465.8,397.3 473.2,392.3 479.8,387.1 485.4,381.7 490.2,376.1 494.1,370.4 497.0,364.7 498.9,358.8 499.9,352.9"/>
<polyline points="131.9,241.7 129.4,246.7 127.7,251.7 126.9,256.8 126.9,261.9 127.7,267.0 129.4,272.1 131.9,277.1 135.3,282.0 139.4,286.8 144.3,291.5 150.0,296.0 156.4,300.3 163.5,304.4 171.3,308.3 179.7,312.0 188.7,315.4 198.2,318.6 208.2,321.4 218.7,324.0 229.6,326.2 240.8,328.2 252.3,329.7 264.0,331.0 275.9,331.9 287.9,332.4 300.0,332.6 312.1,332.4 324.1,331.9 336.0,331.0 347.7,329.7 359.2,328.2 370.4,326.2 381.3,324.0 391.8,321.4 401.8,318.6 411.3,315.4 420.3,312.0 428.7,308.3 436.5,304.4 443.6,300.3 450.0,296.0 455.7,291.5 460.6,286.8 464.7,282.0 468.1,277.1 470.6,272.1 472.3,267.0 473.1,261.9 473.1,256.8 472.3,251.7 470.6,246.7 468.1,241.7"/>
<polyline points="235.7,160.6 230.5,162.6 225.7,164.7 221.2,167.0 217.1,169.4 213.4,171.9 210.1,174.5 207.3,177.2 204.9,180.0 203.0,182.8 201.5,185.7 200.5,188.6 200.1,191.5 200.1,194.5 200.5,197.4 201.5,200.4 203.0,203.2 204.9,206.1 207.3,208.9 210.1,211.5 213.4,214.2 217.1,216.7 221.2,219.0 225.7,221.3 230.5,223.4 235.7,225.4 241.2,227.2 247.0,228.9 253.1,230.3 259.3,231.6 265.8,232.7 272.4,233.6 279.2,234.4 286.1,234.9 293.0,235.2 300.0,235.3 307.0,235.2 313.9,234.9 320.8,234.4 327.6,233.6 334.2,232.7 340.7,231.6 346.9,230.3 353.0,228.9 358.8,227.2 364.3,225.4 369.5,223.4 374.3,221.3 378.8,219.0 382.9,216.7 386.6,214.2 389.9,211.5 392.7,208.9 395.1,206.1 397.0,203.2 398.5,200.4 399.5,197.4 399.9,194.5 399.9,191.5 399.5,188.6 398.5,185.7 397.0,182.8 395.1,180.0 392.7,177.2 389.9,174.5 386.6,171.9 382.9,169.4 378.8,167.0 374.3,164.7 369.5,162.6 364.3,160.6"/>
<polyline points="272.2,152.1 276.6,152.5 281.1,153.9 285.8,156.2 290.5,159.4 295.2,163.6 300.0,168.7"/>
<polyline points="218.8,167.5 228.1,164.4 237.7,162.3 247.6,161.1 257.8,160.8 268.1,161.4 278.7,162.9 289.3,165.4 300.0,168.7"/>
<polyline points="117.4,268.5 123.0,257.3 129.4,246.7 136.7,236.5 144.8,226.8 153.6,217.8 163.2,209.4 173.4,201.7 184.2,194.7 195.6,188.5 207.5,183.1 219.9,178.4 232.6,174.6 245.7,171.7 259.0,169.6 272.6,168.5 286.3,168.2 300.0,168.7"/>
<polyline points="144.2,475.3 137.2,465.7 131.1,455.4 125.7,444.7 121.3,433.5 117.6,421.9 114.9,409.9 113.1,397.7 112.2,385.2 112.2,372.6 113.1,359.8 114.9,347.0 117.6,334.2 121.3,321.5 125.7,308.9 131.1,296.5 137.2,284.4 144.2,272.6 151.9,261.2 160.3,250.2 169.4,239.7 179.2,229.7 189.5,220.3 200.4,211.6 211.8,203.5 223.6,196.2 235.7,189.6 248.2,183.7 260.9,178.7 273.8,174.5 286.9,171.2 300.0,168.7"/>
<polyline points="231.9,538.0 224.4,534.7 217.4,530.5 210.7,525.4 204.5,519.4 198.7,512.6 193.4,505.0 188.7,496.7 184.5,487.7 180.8,477.9 177.7,467.6 175.3,456.7 173.4,445.2 172.1,433.3 171.5,421.0 171.5,408.4 172.1,395.4 173.4,382.3 175.3,369.0 177.7,355.6 180.8,342.1 184.5,328.7 188.7,315.4 193.4,302.3 198.7,289.4 204.5,276.8 210.7,264.6 217.4,252.8 224.4,241.4 231.9,230.6 239.6,220.4 247.7,210.7 256.0,201.8 264.6,193.6 273.3,186.2 282.1,179.5 291.0,173.7 300.0,168.7"/>
<polyline points="283.7,549.1 281.6,547.8 279.6,545.6 277.7,542.4 275.9,538.2 274.2,533.1 272.6,527.2 271.2,520.4 269.9,512.7 268.8,504.3 267.8,495.1 267.0,485.2 266.3,474.6 265.8,463.5 265.5,451.7 265.3,439.5 265.3,426.9 265.5,413.8 265.8,400.5 266.3,386.9 267.0,373.2 267.8,359.3 268.8,345.4 269.9,331.5 271.2,317.6 272.6,304.0 274.2,290.6 275.9,277.4 277.7,264.7 279.6,252.3 281.6,240.4 283.7,229.0 285.9,218.3 288.1,208.1 290.4,198.7 292.8,190.0 295.2,182.1 297.6,175.0 300.0,168.7"/>
<polyline points="332.1,547.3 336.2,545.8 340.2,543.3 344.0,539.9 347.5,535.6 350.8,530.3 353.9,524.2 356.7,517.2 359.2,509.4 361.5,500.8 363.4,491.5 365.1,481.6 366.4,470.9 367.4,459.7 368.0,447.9 368.4,435.7 368.4,423.1 368.0,410.0 367.4,396.7 366.4,383.2 365.1,369.5 363.4,355.7 361.5,341.9 359.2,328.2 356.7,314.5 353.9,301.0 350.8,287.7 347.5,274.8 344.0,262.2 340.2,250.0 336.2,238.4 332.1,227.2 327.8,216.7 323.4,206.8 318.9,197.7 314.2,189.2 309.5,181.6 304.8,174.7 300.0,168.7"/>
<polyline points="390.1,528.6 398.5,523.8 406.4,518.1 413.9,511.7 420.7,504.4 427.0,496.4 432.7,487.7 437.7,478.3 442.1,468.3 445.7,457.7 448.7,446.6 450.9,435.0 452.4,423.0 453.1,410.6 453.1,398.0 452.4,385.1 450.9,372.0 448.7,358.9 445.7,345.7 442.1,332.5 437.7,319.4 432.7,306.4 427.0,293.7 420.7,281.2 413.9,269.1 406.4,257.4 398.5,246.1 390.1,235.3 381.2,225.1 371.9,215.5 362.3,206.5 352.4,198.3 342.2,190.7 331.9,184.0 321.3,178.1 310.7,173.0 300.0,168.7"/>
<polyline points="487.3,420.0 491.1,408.1 494.0,395.9 495.9,383.5 496.8,371.0 496.8,358.3 495.9,345.6 494.0,333.0 491.1,320.4 487.3,307.9 482.6,295.7 477.0,283.7 470.6,272.1 463.3,260.8 455.2,250.0 446.4,239.6 436.8,229.8 426.6,220.6 415.8,212.0 404.4,204.1 392.5,196.8 380.1,190.4 367.4,184.7 354.3,179.8 341.0,175.8 327.4,172.5 313.7,170.2 300.0,168.7"/>
<polyline points="448.1,215.6 439.7,207.2 430.6,199.5 420.8,192.6 410.5,186.4 399.6,181.0 388.2,176.4 376.4,172.7 364.3,169.8 351.8,167.8 339.1,166.7 326.2,166.5 313.1,167.2 300.0,168.7"/>
<polyline points="360.4,159.6 352.3,158.1 344.0,157.5 335.4,157.9 326.7,159.2 317.9,161.5 309.0,164.7 300.0,168.7"/>
<polyline points="314.1,150.6 311.9,151.2 309.6,152.8 307.2,155.4 304.8,158.9 302.4,163.4 300.0,168.7"/>
</g>
<g clip-path="url(#bola)" fill="#5fd0dd" fill-opacity=".13" stroke="#5fd0dd" stroke-opacity=".35" stroke-width="1" stroke-linejoin="round">
<polygon points="321.7,548.8 333.2,547.2 346.9,544.4 348.2,539.2 342.4,520.8 316.2,529.4 294.7,532.7 286.0,541.0 270.9,544.1 267.2,546.3 268.3,547.5 260.1,546.0 265.9,547.1 277.7,548.8 289.2,549.7 302.3,550.0 305.2,549.9 308.4,549.8 312.9,549.6"/>
<polygon points="476.0,416.3 465.7,423.8 464.9,416.0 467.6,402.3 471.4,393.5 476.3,380.1 477.5,372.4 477.5,358.2 475.8,348.6 463.0,343.1 464.7,334.2 476.6,344.0 467.0,328.5 454.9,317.2 455.7,308.5 453.0,298.0 434.1,281.7 430.8,287.7 423.2,295.5 402.0,285.5 379.7,278.2 372.4,249.3 368.6,233.8 370.3,226.5 380.4,232.6 398.5,246.1 377.0,230.5 366.4,218.0 354.3,206.9 340.5,197.3 334.4,196.7 321.1,190.2 318.9,183.8 320.4,183.4 306.9,172.3 295.3,166.7 291.6,164.5 283.6,161.0 286.9,160.1 283.9,155.6 281.9,155.2 283.3,157.6 281.1,159.2 274.9,155.8 265.5,155.3 259.5,157.9 245.6,158.9 226.9,164.2 217.6,168.1 213.6,170.9 200.3,177.0 196.9,178.6 191.0,182.5 174.0,194.7 156.9,210.3 151.4,216.7 158.7,210.4 143.2,228.0 122.1,258.8 111.6,282.8 103.8,311.3 100.0,347.0 100.1,352.9 147.0,236.9 232.1,183.2 265.6,173.5 334.7,170.7 368.3,178.2 400.0,193.0 441.3,223.9 453.0,236.9 467.7,251.3 481.2,272.1 493.1,305.9 495.5,328.7 497.3,345.9 494.9,351.7 493.3,334.4 489.8,332.3 493.0,343.6 489.9,344.7 489.7,363.4 489.0,371.2 485.3,388.0 485.0,394.2 482.7,387.5 479.6,393.4"/>
<polygon points="487.2,394.6 489.1,374.4 491.1,368.4 492.3,373.3 494.8,375.3 496.1,375.6 494.6,386.4 492.5,387.6 492.0,382.8 489.5,391.8"/>
<polygon points="487.3,407.2 489.2,394.9 492.1,390.7 491.3,396.9 489.3,404.4"/>
<polygon points="425.5,464.0 409.7,469.2 399.5,466.9 388.8,461.4 380.6,451.7 384.5,432.9 387.5,413.1 380.3,397.9 364.3,400.6 347.3,392.5 327.1,390.8 306.8,394.9 276.5,384.1 254.0,372.0 251.4,364.7 256.5,344.3 276.7,321.5 294.3,315.2 313.4,298.0 326.6,297.3 340.2,299.4 350.8,287.7 354.3,273.7 364.8,254.7 374.1,276.2 379.7,278.2 397.0,290.9 411.7,296.7 424.7,298.7 431.8,299.1 435.9,308.6 448.1,336.9 452.2,353.4 458.8,364.2 465.2,363.9 467.5,386.5 463.7,404.8 464.9,416.0 453.1,433.9 444.8,445.9"/>
<polygon points="287.5,284.7 288.1,274.9 311.2,265.3 318.3,268.1 310.0,284.7"/>
<polygon points="302.8,150.1 319.7,151.1 324.3,151.5 327.3,151.9 326.0,151.7 341.4,154.3 352.5,157.0 359.6,159.1 360.1,159.3 338.8,153.8 319.6,151.0 296.6,150.0 272.5,151.9 291.0,150.2 278.6,151.1 281.0,150.9 287.5,150.4 296.3,150.0"/>
<polygon points="292.6,162.8 288.7,159.8 286.7,153.2 288.5,155.8"/>
<polygon points="276.7,152.9 258.8,154.3 265.2,153.0 275.8,151.5 280.0,152.0"/>
</g>
<path d="M342.8,284.5 Q233.7,249.6 167.2,279.3" fill="none" stroke="#f1c75a" stroke-opacity=".18" stroke-width="9" stroke-linecap="round"/>
<path d="M342.8,284.5 Q233.7,249.6 167.2,279.3" fill="none" stroke="#f1c75a" stroke-opacity="0.95" stroke-width="2.6"/>
<rect x="275.0" y="266.0" width="8" height="6" rx="1.5" fill="#fff3cf" fill-opacity=".95"/>
<path d="M342.8,284.5 Q242.5,244.9 177.3,269.5" fill="none" stroke="#f1c75a" stroke-opacity=".18" stroke-width="9" stroke-linecap="round"/>
<path d="M342.8,284.5 Q242.5,244.9 177.3,269.5" fill="none" stroke="#f1c75a" stroke-opacity="0.95" stroke-width="2.6"/>
<rect x="279.8" y="263.1" width="8" height="6" rx="1.5" fill="#fff3cf" fill-opacity=".95"/>
<path d="M342.7,294.3 Q344.0,287.6 342.8,284.5" fill="none" stroke="#6fe0ec" stroke-opacity=".18" stroke-width="6" stroke-linecap="round"/>
<path d="M342.7,294.3 Q344.0,287.6 342.8,284.5" fill="none" stroke="#6fe0ec" stroke-opacity="0.7" stroke-width="1.6"/>
<rect x="339.4" y="286.5" width="8" height="6" rx="1.5" fill="#fff3cf" fill-opacity=".95"/>
<path d="M342.7,294.3 Q338.0,295.2 329.5,301.4" fill="none" stroke="#6fe0ec" stroke-opacity=".18" stroke-width="6" stroke-linecap="round"/>
<path d="M342.7,294.3 Q338.0,295.2 329.5,301.4" fill="none" stroke="#6fe0ec" stroke-opacity="0.7" stroke-width="1.6"/>
<path d="M329.5,301.4 Q260.3,400.7 236.7,441.7" fill="none" stroke="#f1c75a" stroke-opacity=".18" stroke-width="9" stroke-linecap="round"/>
<path d="M329.5,301.4 Q260.3,400.7 236.7,441.7" fill="none" stroke="#f1c75a" stroke-opacity="0.95" stroke-width="2.6"/>
<rect x="252.2" y="406.8" width="8" height="6" rx="1.5" fill="#fff3cf" fill-opacity=".95"/>
<path d="M236.7,441.7 Q221.1,476.6 217.9,491.6" fill="none" stroke="#6fe0ec" stroke-opacity=".18" stroke-width="6" stroke-linecap="round"/>
<path d="M236.7,441.7 Q221.1,476.6 217.9,491.6" fill="none" stroke="#6fe0ec" stroke-opacity="0.7" stroke-width="1.6"/>
<rect x="217.3" y="476.7" width="8" height="6" rx="1.5" fill="#fff3cf" fill-opacity=".95"/>
<path d="M217.9,491.6 Q204.8,504.3 197.7,507.5" fill="none" stroke="#6fe0ec" stroke-opacity=".18" stroke-width="6" stroke-linecap="round"/>
<path d="M217.9,491.6 Q204.8,504.3 197.7,507.5" fill="none" stroke="#6fe0ec" stroke-opacity="0.7" stroke-width="1.6"/>
<path d="M342.7,294.3 Q336.0,307.7 314.1,338.9" fill="none" stroke="#f1c75a" stroke-opacity=".18" stroke-width="9" stroke-linecap="round"/>
<path d="M342.7,294.3 Q336.0,307.7 314.1,338.9" fill="none" stroke="#f1c75a" stroke-opacity="0.95" stroke-width="2.6"/>
<rect x="322.5" y="317.9" width="8" height="6" rx="1.5" fill="#fff3cf" fill-opacity=".95"/>
<path d="M314.1,338.9 Q318.5,369.9 308.8,385.7" fill="none" stroke="#6fe0ec" stroke-opacity=".18" stroke-width="6" stroke-linecap="round"/>
<path d="M314.1,338.9 Q318.5,369.9 308.8,385.7" fill="none" stroke="#6fe0ec" stroke-opacity="0.7" stroke-width="1.6"/>
<rect x="311.4" y="357.7" width="8" height="6" rx="1.5" fill="#fff3cf" fill-opacity=".95"/>
<path d="M308.8,385.7 Q354.9,407.8 378.9,406.6" fill="none" stroke="#6fe0ec" stroke-opacity=".18" stroke-width="6" stroke-linecap="round"/>
<path d="M308.8,385.7 Q354.9,407.8 378.9,406.6" fill="none" stroke="#6fe0ec" stroke-opacity="0.7" stroke-width="1.6"/>
<rect x="336.6" y="396.1" width="8" height="6" rx="1.5" fill="#fff3cf" fill-opacity=".95"/>
<path d="M378.9,406.6 Q405.7,473.4 403.1,506.1" fill="none" stroke="#6fe0ec" stroke-opacity=".18" stroke-width="6" stroke-linecap="round"/>
<path d="M378.9,406.6 Q405.7,473.4 403.1,506.1" fill="none" stroke="#6fe0ec" stroke-opacity="0.7" stroke-width="1.6"/>
<rect x="395.5" y="466.7" width="8" height="6" rx="1.5" fill="#fff3cf" fill-opacity=".95"/>
<path d="M362.4,281.3 Q413.3,284.9 435.0,305.2" fill="none" stroke="#6fe0ec" stroke-opacity=".18" stroke-width="6" stroke-linecap="round"/>
<path d="M362.4,281.3 Q413.3,284.9 435.0,305.2" fill="none" stroke="#6fe0ec" stroke-opacity="0.7" stroke-width="1.6"/>
<path d="M435.0,305.2 Q473.3,353.2 467.3,400.4" fill="none" stroke="#6fe0ec" stroke-opacity=".18" stroke-width="6" stroke-linecap="round"/>
<path d="M435.0,305.2 Q473.3,353.2 467.3,400.4" fill="none" stroke="#6fe0ec" stroke-opacity="0.7" stroke-width="1.6"/>
<path d="M342.4,257.6 Q244.5,230.5 177.3,269.5" fill="none" stroke="#6fe0ec" stroke-opacity=".18" stroke-width="6" stroke-linecap="round"/>
<path d="M342.4,257.6 Q244.5,230.5 177.3,269.5" fill="none" stroke="#6fe0ec" stroke-opacity="0.7" stroke-width="1.6"/>
<rect x="238.2" y="245.0" width="8" height="6" rx="1.5" fill="#fff3cf" fill-opacity=".95"/>
<path d="M342.4,257.6 Q346.6,269.0 342.7,294.3" fill="none" stroke="#6fe0ec" stroke-opacity=".18" stroke-width="6" stroke-linecap="round"/>
<path d="M342.4,257.6 Q346.6,269.0 342.7,294.3" fill="none" stroke="#6fe0ec" stroke-opacity="0.7" stroke-width="1.6"/>
<path d="M342.4,257.6 Q376.0,230.3 395.2,225.8" fill="none" stroke="#6fe0ec" stroke-opacity=".18" stroke-width="6" stroke-linecap="round"/>
<path d="M342.4,257.6 Q376.0,230.3 395.2,225.8" fill="none" stroke="#6fe0ec" stroke-opacity="0.7" stroke-width="1.6"/>
<rect x="371.7" y="231.0" width="8" height="6" rx="1.5" fill="#fff3cf" fill-opacity=".95"/>
<path d="M360.9,271.7 Q363.0,274.9 362.4,281.3" fill="none" stroke="#6fe0ec" stroke-opacity=".18" stroke-width="6" stroke-linecap="round"/>
<path d="M360.9,271.7 Q363.0,274.9 362.4,281.3" fill="none" stroke="#6fe0ec" stroke-opacity="0.7" stroke-width="1.6"/>
<path d="M360.9,271.7 Q354.3,260.3 342.4,257.6" fill="none" stroke="#6fe0ec" stroke-opacity=".18" stroke-width="6" stroke-linecap="round"/>
<path d="M360.9,271.7 Q354.3,260.3 342.4,257.6" fill="none" stroke="#6fe0ec" stroke-opacity="0.7" stroke-width="1.6"/>
<path d="M177.3,269.5 Q165.8,258.4 162.4,252.9" fill="none" stroke="#6fe0ec" stroke-opacity=".18" stroke-width="6" stroke-linecap="round"/>
<path d="M177.3,269.5 Q165.8,258.4 162.4,252.9" fill="none" stroke="#6fe0ec" stroke-opacity="0.7" stroke-width="1.6"/>
<path d="M177.3,269.5 Q150.1,284.6 143.7,308.9" fill="none" stroke="#6fe0ec" stroke-opacity=".18" stroke-width="6" stroke-linecap="round"/>
<path d="M177.3,269.5 Q150.1,284.6 143.7,308.9" fill="none" stroke="#6fe0ec" stroke-opacity="0.7" stroke-width="1.6"/>
<rect x="156.0" y="279.0" width="8" height="6" rx="1.5" fill="#fff3cf" fill-opacity=".95"/>
<path d="M143.7,308.9 Q124.5,346.4 138.5,384.5" fill="none" stroke="#6fe0ec" stroke-opacity=".18" stroke-width="6" stroke-linecap="round"/>
<path d="M143.7,308.9 Q124.5,346.4 138.5,384.5" fill="none" stroke="#6fe0ec" stroke-opacity="0.7" stroke-width="1.6"/>
<path d="M138.5,384.5 Q165.8,425.3 236.7,441.7" fill="none" stroke="#6fe0ec" stroke-opacity=".18" stroke-width="6" stroke-linecap="round"/>
<path d="M138.5,384.5 Q165.8,425.3 236.7,441.7" fill="none" stroke="#6fe0ec" stroke-opacity="0.7" stroke-width="1.6"/>
<rect x="185.2" y="422.8" width="8" height="6" rx="1.5" fill="#fff3cf" fill-opacity=".95"/>
<path d="M187.2,255.9 Q179.3,260.5 177.3,269.5" fill="none" stroke="#6fe0ec" stroke-opacity=".18" stroke-width="6" stroke-linecap="round"/>
<path d="M187.2,255.9 Q179.3,260.5 177.3,269.5" fill="none" stroke="#6fe0ec" stroke-opacity="0.7" stroke-width="1.6"/>
<path d="M297.1,223.8 Q322.0,228.5 342.4,257.6" fill="none" stroke="#6fe0ec" stroke-opacity=".18" stroke-width="6" stroke-linecap="round"/>
<path d="M297.1,223.8 Q322.0,228.5 342.4,257.6" fill="none" stroke="#6fe0ec" stroke-opacity="0.7" stroke-width="1.6"/>
<rect x="315.1" y="230.3" width="8" height="6" rx="1.5" fill="#fff3cf" fill-opacity=".95"/>
<path d="M297.1,223.8 Q230.4,217.6 187.2,255.9" fill="none" stroke="#6fe0ec" stroke-opacity=".18" stroke-width="6" stroke-linecap="round"/>
<path d="M297.1,223.8 Q230.4,217.6 187.2,255.9" fill="none" stroke="#6fe0ec" stroke-opacity="0.7" stroke-width="1.6"/>
<path d="M342.7,294.3 Q355.9,283.8 362.4,281.3" fill="none" stroke="#6fe0ec" stroke-opacity=".18" stroke-width="6" stroke-linecap="round"/>
<path d="M342.7,294.3 Q355.9,283.8 362.4,281.3" fill="none" stroke="#6fe0ec" stroke-opacity="0.7" stroke-width="1.6"/>
<path d="M143.7,308.9 Q155.5,383.3 236.7,441.7" fill="none" stroke="#6fe0ec" stroke-opacity=".18" stroke-width="6" stroke-linecap="round"/>
<path d="M143.7,308.9 Q155.5,383.3 236.7,441.7" fill="none" stroke="#6fe0ec" stroke-opacity="0.7" stroke-width="1.6"/>
<rect x="156.5" y="356.1" width="8" height="6" rx="1.5" fill="#fff3cf" fill-opacity=".95"/>
<path d="M395.2,225.8 Q430.8,253.9 435.0,305.2" fill="none" stroke="#6fe0ec" stroke-opacity=".18" stroke-width="6" stroke-linecap="round"/>
<path d="M395.2,225.8 Q430.8,253.9 435.0,305.2" fill="none" stroke="#6fe0ec" stroke-opacity="0.7" stroke-width="1.6"/>
<rect x="424.6" y="270.2" width="8" height="6" rx="1.5" fill="#fff3cf" fill-opacity=".95"/>
<circle cx="342.7" cy="294.3" r="16" fill="url(#nodo)"/>
<circle cx="342.7" cy="294.3" r="3.2" fill="#fff6d8"/>
<circle cx="342.8" cy="284.5" r="16" fill="url(#nodo)"/>
<circle cx="342.8" cy="284.5" r="3.2" fill="#fff6d8"/>
<circle cx="342.4" cy="257.6" r="10" fill="url(#nodo)"/>
<circle cx="342.4" cy="257.6" r="2.2" fill="#fff6d8"/>
<circle cx="177.3" cy="269.5" r="10" fill="url(#nodo)"/>
<circle cx="177.3" cy="269.5" r="2.2" fill="#fff6d8"/>
<circle cx="167.2" cy="279.3" r="10" fill="url(#nodo)"/>
<circle cx="167.2" cy="279.3" r="2.2" fill="#fff6d8"/>
<circle cx="217.9" cy="491.6" r="10" fill="url(#nodo)"/>
<circle cx="217.9" cy="491.6" r="2.2" fill="#fff6d8"/>
<circle cx="236.7" cy="441.7" r="10" fill="url(#nodo)"/>
<circle cx="236.7" cy="441.7" r="2.2" fill="#fff6d8"/>
<circle cx="378.9" cy="406.6" r="10" fill="url(#nodo)"/>
<circle cx="378.9" cy="406.6" r="2.2" fill="#fff6d8"/>
<circle cx="403.1" cy="506.1" r="10" fill="url(#nodo)"/>
<circle cx="403.1" cy="506.1" r="2.2" fill="#fff6d8"/>
<circle cx="435.0" cy="305.2" r="10" fill="url(#nodo)"/>
<circle cx="435.0" cy="305.2" r="2.2" fill="#fff6d8"/>
<circle cx="395.2" cy="225.8" r="10" fill="url(#nodo)"/>
<circle cx="395.2" cy="225.8" r="2.2" fill="#fff6d8"/>
<circle cx="314.1" cy="338.9" r="10" fill="url(#nodo)"/>
<circle cx="314.1" cy="338.9" r="2.2" fill="#fff6d8"/>
<circle cx="297.1" cy="223.8" r="10" fill="url(#nodo)"/>
<circle cx="297.1" cy="223.8" r="2.2" fill="#fff6d8"/>
<circle cx="143.7" cy="308.9" r="10" fill="url(#nodo)"/>
<circle cx="143.7" cy="308.9" r="2.2" fill="#fff6d8"/>
<circle cx="308.8" cy="385.7" r="10" fill="url(#nodo)"/>
<circle cx="308.8" cy="385.7" r="2.2" fill="#fff6d8"/>
<circle cx="362.4" cy="281.3" r="10" fill="url(#nodo)"/>
<circle cx="362.4" cy="281.3" r="2.2" fill="#fff6d8"/>
<circle cx="360.9" cy="271.7" r="10" fill="url(#nodo)"/>
<circle cx="360.9" cy="271.7" r="2.2" fill="#fff6d8"/>
<circle cx="162.4" cy="252.9" r="10" fill="url(#nodo)"/>
<circle cx="162.4" cy="252.9" r="2.2" fill="#fff6d8"/>
<circle cx="187.2" cy="255.9" r="10" fill="url(#nodo)"/>
<circle cx="187.2" cy="255.9" r="2.2" fill="#fff6d8"/>
<circle cx="329.5" cy="301.4" r="10" fill="url(#nodo)"/>
<circle cx="329.5" cy="301.4" r="2.2" fill="#fff6d8"/>
<circle cx="467.3" cy="400.4" r="10" fill="url(#nodo)"/>
<circle cx="467.3" cy="400.4" r="2.2" fill="#fff6d8"/>
<circle cx="197.7" cy="507.5" r="10" fill="url(#nodo)"/>
<circle cx="197.7" cy="507.5" r="2.2" fill="#fff6d8"/>
<circle cx="138.5" cy="384.5" r="10" fill="url(#nodo)"/>
<circle cx="138.5" cy="384.5" r="2.2" fill="#fff6d8"/>
<rect x="24" y="24" width="552" height="852" fill="none" stroke="#c9a227" stroke-width="3"/>
<rect x="36" y="36" width="528" height="828" fill="none" stroke="#c9a227" stroke-width="1"/>
<text x="300" y="98" text-anchor="middle" font-family="Georgia, serif" font-size="24" fill="#f3d9a4" letter-spacing="6">TECNOLOGÍA</text>
<text x="300" y="634" text-anchor="middle" font-family="Georgia, serif" font-size="70" font-weight="bold" fill="#f3ede1">¿Cómo funciona</text>
<text x="300" y="710" text-anchor="middle" font-family="Georgia, serif" font-size="70" font-weight="bold" fill="#f3ede1">internet?</text>
<text x="300" y="768" text-anchor="middle" font-family="Georgia, serif" font-size="28" font-style="italic" fill="#dcd6c4">El viaje de un mensaje</text>
<text x="300" y="802" text-anchor="middle" font-family="Georgia, serif" font-size="28" font-style="italic" fill="#dcd6c4">por la red de redes</text>
<text x="300" y="856" text-anchor="middle" font-family="Georgia, serif" font-size="18" fill="#a9b4c0" letter-spacing="4">BIBLIOTECA</text>
</svg>