<svg xmlns="http://www.w3.org/2000/svg" viewBox="0 0 600 900" width="600" height="900" xmlns:c2pa="http://c2pa.org/manifest"><metadata><c2pa:manifest>AAAWgmp1bWIAAAAeanVtZGMycGEAEQAQgAAAqgA4m3EDYzJwYQAAABZcanVtYgAAAEdqdW1kYzJtYQARABCAAACqADibcQN1cm46YzJwYTo0MzhiMWM2Ny1mOGRmLTQ5OTAtYTEyMC0zZTE0YTc1YzM5NTkAAAADl2p1bWIAAAApanVtZGMyYXMAEQAQgAAAqgA4m3EDYzJwYS5hc3NlcnRpb25zAAAAALxqdW1iAAAARGp1bWRjYm9yABEAEIAAAKoAOJtxE2MycGEuaW5ncmVkaWVudC52MwAAAAAYYzJzaKO7wNIQHGIfDtwMgI37aQMAAABwY2JvcqNpZGM6Zm9ybWF0bWltYWdlL3N2Zyt4bWxqaW5zdGFuY2VJRHgseG1wOmlpZDo4YjNmMTg3ZS1mYTM5LTQ1MDEtYTRkZC03NTIzN2QyNDZmYTVscmVsYXRpb25zaGlwaHBhcmVudE9mAAAB4mp1bWIAAABBanVtZGNib3IAEQAQgAAAqgA4m3ETYzJwYS5hY3Rpb25zLnYyAAAAABhjMnNoLjeZdGlcHrnBVQjB82bwfgAAAZljYm9yomdhY3Rpb25zgqJmYWN0aW9ua2MycGEub3BlbmVkanBhcmFtZXRlcnOha2luZ3JlZGllbnRzgaJjdXJseC1zZWxmI2p1bWJmPWMycGEuYXNzZXJ0aW9ucy9jMnBhLmluZ3JlZGllbnQudjNkaGFzaFggoWe9EvYPnjAQFJODacknrpqwd70QlnwIrdITiiOXKlOkZmFjdGlvbngdY29tLmFudGhyb3BpYy5jbGF1ZGUucHJvdmlkZWRqcGFyYW1ldGVyc6F4H2NvbS5hbnRocm9waWMub3JpZ2luLWNvbmZpZGVuY2VndW5rbm93bmtkZXNjcmlwdGlvbnhmQ2xhdWRlIHByb3ZpZGVkIHRoaXMgZmlsZSBhdCB0aGUgcmVxdWVzdCBvZiBhIHVzZXIgYW5kIG1heSBoYXZlIGNyZWF0ZWQgb3IgbW9kaWZpZWQgdGhlIGZpbGUgY29udGVudHMubXNvZnR3YXJlQWdlbnShZG5hbWVmQ2xhdWRlcmFsbEFjdGlvbnNJbmNsdWRlZPUAAADIanVtYgAAAEBqdW1kY2JvcgARABCAAACqADibcRNjMnBhLmhhc2guZGF0YQAAAAAYYzJzaIv30v6dtNbhpGSgIvtFg8sAAACAY2JvcqVjYWxnZnNoYTI1NmNwYWRNAAAAAAAAAAAAAAAAAGRoYXNoWCBhpNJy2ilIFb0tHLaZGXoSy2VOPT6QKhsAuDnQ3gie+2RuYW1lbmp1bWJmIG1hbmlmZXN0amV4Y2x1c2lvbnOBomVzdGFydBiWZmxlbmd0aBkeBAAAAj5qdW1iAAAAJ2p1bWRjMmNsABEAEIAAAKoAOJtxA2MycGEuY2xhaW0udjIAAAACD2Nib3KlY2FsZ2ZzaGEyNTZpc2lnbmF0dXJleE1zZWxmI2p1bWJmPS9jMnBhL3VybjpjMnBhOjQzOGIxYzY3LWY4ZGYtNDk5MC1hMTIwLTNlMTRhNzVjMzk1OS9jMnBhLnNpZ25hdHVyZWppbnN0YW5jZUlEeCx4bXA6aWlkOjkwNGNiNTA2LWI3ZDYtNGVjNC1iMjZhLWJlYTZkNTg0MGQyYnJjcmVhdGVkX2Fzc2VydGlvbnODomN1cmx4LXNlbGYjanVtYmY9YzJwYS5hc3NlcnRpb25zL2MycGEuaW5ncmVkaWVudC52M2RoYXNoWCChZ70S9g+eMBAUk4NpySeumrB3vRCWfAit0hOKI5cqU6JjdXJseCpzZWxmI2p1bWJmPWMycGEuYXNzZXJ0aW9ucy9jMnBhLmFjdGlvbnMudjJkaGFzaFggSYaGEoETpnQHwyFSadOjlB7MN9+XpU9p5cPALx0fMUuiY3VybHgpc2VsZiNqdW1iZj1jMnBhLmFzc2VydGlvbnMvYzJwYS5oYXNoLmRhdGFkaGFzaFggphIe3aZMeiREAT3hT7ZRIfAlGY9lj1z3sGmbxk73fUp0Y2xhaW1fZ2VuZXJhdG9yX2luZm+jZG5hbWVvQW50aHJvcGljIEZpbGVzZ3ZlcnNpb25lMS4wLjBrc3BlY1ZlcnNpb25lMi40LjAAABA4anVtYgAAAChqdW1kYzJjcwARABCAAACqADibcQNjMnBhLnNpZ25hdHVyZQAAABAIY2JvctKEWQISogEmGCFZAgowggIGMIIBjaADAgECAhRA5aAK7sI50L64g/oGQgU9Z1UTADAKBggqhkjOPQQDAzBJMRcwFQYDVQQKEw5BbnRocm9waWMsIFBCQzEuMCwGA1UEAxMlQW50aHJvcGljIENvbnRlbnQgQ3JlZGVudGlhbHMgUm9vdCBDQTAeFw0yNjA4MDcxODQzNTZaFw0yODA4MDYxOTQzNTZaMEQxFzAVBgNVBAoTDkFudGhyb3BpYywgUEJDMSkwJwYDVQQDEyBBbnRocm9waWMgQ2xhdWRlIENvbnRlbnQgU2lnbmluZzBZMBMGByqGSM49AgEGCCqGSM49AwEHA0IABJh6CmvLUBgFFNU0vUKlOVtE6djd17L5SuwX0LemFisBM3dkd/3cyjxFA3Qo5S46fX0/ihY0VZ7mfb9KF703t5OjWDBWMA4GA1UdDwEB/wQEAwIHgDAVBgNVHSUEDjAMBgorBgEEAYPoXgIBMAwGA1UdEwEB/wQCMAAwHwYDVR0jBBgwFoAUzlHiBIFOZFsj+OPEz5o+nMHXXMIwCgYIKoZIzj0EAwMDZwAwZAIwMXMdFJ4BetLLVY7ORuE9noqbbAZOZn/aArXyTwFAZfKrPzxF2vPoJNf1+UCdg1XGAjBwX1zd9WGqYkqmL5SFqw1QySjr1zJfpJM9+1rdDwSPLMOPOjKuiXjoU/pUUeG9RwmhY3BhZFkNngAAAAAAAAAAAAAAAAAAAAAAAAAAAAAAAAAAAAAAAAAAAAAAAAAAAAAAAAAAAAAAAAAAAAAAAAAAAAAAAAAAAAAAAAAAAAAAAAAAAAAAAAAAAAAAAAAAAAAAAAAAAAAAAAAAAAAAAAAAAAAAAAAAAAAAAAAAAAAAAAAAAAAAAAAAAAAAAAAAAAAAAAAAAAAAAAAAAAAAAAAAAAAAAAAAAAAAAAAAAAAAAAAAAAAAAAAAAAAAAAAAAAAAAAAAAAAAAAAAAAAAAAAAAAAAAAAAAAAAAAAAAAAAAAAAAAAAAAAAAAAAAAAAAAAAAAAAAAAAAAAAAAAAAAAAAAAAAAAAAAAAAAAAAAAAAAAAAAAAAAAAAAAAAAAAAAAAAAAAAAAAAAAAAAAAAAAAAAAAAAAAAAAAAAAAAAAAAAAAAAAAAAAAAAAAAAAAAAAAAAAAAAAAAAAAAAAAAAAAAAAAAAAAAAAAAAAAAAAAAAAAAAAAAAAAAAAAAAAAAAAAAAAAAAAAAAAAAAAAAAAAAAAAAAAAAAAAAAAAAAAAAAAAAAAAAAAAAAAAAAAAAAAAAAAAAAAAAAAAAAAAAAAAAAAAAAAAAAAAAAAAAAAAAAAAAAAAAAAAAAAAAAAAAAAAAAAAAAAAAAAAAAAAAAAAAAAAAAAAAAAAAAAAAAAAAAAAAAAAAAAAAAAAAAAAAAAAAAAAAAAAAAAAAAAAAAAAAAAAAAAAAAAAAAAAAAAAAAAAAAAAAAAAAAAAAAAAAAAAAAAAAAAAAAAAAAAAAAAAAAAAAAAAAAAAAAAAAAAAAAAAAAAAAAAAAAAAAAAAAAAAAAAAAAAAAAAAAAAAAAAAAAAAAAAAAAAAAAAAAAAAAAAAAAAAAAAAAAAAAAAAAAAAAAAAAAAAAAAAAAAAAAAAAAAAAAAAAAAAAAAAAAAAAAAAAAAAAAAAAAAAAAAAAAAAAAAAAAAAAAAAAAAAAAAAAAAAAAAAAAAAAAAAAAAAAAAAAAAAAAAAAAAAAAAAAAAAAAAAAAAAAAAAAAAAAAAAAAAAAAAAAAAAAAAAAAAAAAAAAAAAAAAAAAAAAAAAAAAAAAAAAAAAAAAAAAAAAAAAAAAAAAAAAAAAAAAAAAAAAAAAAAAAAAAAAAAAAAAAAAAAAAAAAAAAAAAAAAAAAAAAAAAAAAAAAAAAAAAAAAAAAAAAAAAAAAAAAAAAAAAAAAAAAAAAAAAAAAAAAAAAAAAAAAAAAAAAAAAAAAAAAAAAAAAAAAAAAAAAAAAAAAAAAAAAAAAAAAAAAAAAAAAAAAAAAAAAAAAAAAAAAAAAAAAAAAAAAAAAAAAAAAAAAAAAAAAAAAAAAAAAAAAAAAAAAAAAAAAAAAAAAAAAAAAAAAAAAAAAAAAAAAAAAAAAAAAAAAAAAAAAAAAAAAAAAAAAAAAAAAAAAAAAAAAAAAAAAAAAAAAAAAAAAAAAAAAAAAAAAAAAAAAAAAAAAAAAAAAAAAAAAAAAAAAAAAAAAAAAAAAAAAAAAAAAAAAAAAAAAAAAAAAAAAAAAAAAAAAAAAAAAAAAAAAAAAAAAAAAAAAAAAAAAAAAAAAAAAAAAAAAAAAAAAAAAAAAAAAAAAAAAAAAAAAAAAAAAAAAAAAAAAAAAAAAAAAAAAAAAAAAAAAAAAAAAAAAAAAAAAAAAAAAAAAAAAAAAAAAAAAAAAAAAAAAAAAAAAAAAAAAAAAAAAAAAAAAAAAAAAAAAAAAAAAAAAAAAAAAAAAAAAAAAAAAAAAAAAAAAAAAAAAAAAAAAAAAAAAAAAAAAAAAAAAAAAAAAAAAAAAAAAAAAAAAAAAAAAAAAAAAAAAAAAAAAAAAAAAAAAAAAAAAAAAAAAAAAAAAAAAAAAAAAAAAAAAAAAAAAAAAAAAAAAAAAAAAAAAAAAAAAAAAAAAAAAAAAAAAAAAAAAAAAAAAAAAAAAAAAAAAAAAAAAAAAAAAAAAAAAAAAAAAAAAAAAAAAAAAAAAAAAAAAAAAAAAAAAAAAAAAAAAAAAAAAAAAAAAAAAAAAAAAAAAAAAAAAAAAAAAAAAAAAAAAAAAAAAAAAAAAAAAAAAAAAAAAAAAAAAAAAAAAAAAAAAAAAAAAAAAAAAAAAAAAAAAAAAAAAAAAAAAAAAAAAAAAAAAAAAAAAAAAAAAAAAAAAAAAAAAAAAAAAAAAAAAAAAAAAAAAAAAAAAAAAAAAAAAAAAAAAAAAAAAAAAAAAAAAAAAAAAAAAAAAAAAAAAAAAAAAAAAAAAAAAAAAAAAAAAAAAAAAAAAAAAAAAAAAAAAAAAAAAAAAAAAAAAAAAAAAAAAAAAAAAAAAAAAAAAAAAAAAAAAAAAAAAAAAAAAAAAAAAAAAAAAAAAAAAAAAAAAAAAAAAAAAAAAAAAAAAAAAAAAAAAAAAAAAAAAAAAAAAAAAAAAAAAAAAAAAAAAAAAAAAAAAAAAAAAAAAAAAAAAAAAAAAAAAAAAAAAAAAAAAAAAAAAAAAAAAAAAAAAAAAAAAAAAAAAAAAAAAAAAAAAAAAAAAAAAAAAAAAAAAAAAAAAAAAAAAAAAAAAAAAAAAAAAAAAAAAAAAAAAAAAAAAAAAAAAAAAAAAAAAAAAAAAAAAAAAAAAAAAAAAAAAAAAAAAAAAAAAAAAAAAAAAAAAAAAAAAAAAAAAAAAAAAAAAAAAAAAAAAAAAAAAAAAAAAAAAAAAAAAAAAAAAAAAAAAAAAAAAAAAAAAAAAAAAAAAAAAAAAAAAAAAAAAAAAAAAAAAAAAAAAAAAAAAAAAAAAAAAAAAAAAAAAAAAAAAAAAAAAAAAAAAAAAAAAAAAAAAAAAAAAAAAAAAAAAAAAAAAAAAAAAAAAAAAAAAAAAAAAAAAAAAAAAAAAAAAAAAAAAAAAAAAAAAAAAAAAAAAAAAAAAAAAAAAAAAAAAAAAAAAAAAAAAAAAAAAAAAAAAAAAAAAAAAAAAAAAAAAAAAAAAAAAAAAAAAAAAAAAAAAAAAAAAAAAAAAAAAAAAAAAAAAAAAAAAAAAAAAAAAAAAAAAAAAAAAAAAAAAAAAAAAAAAAAAAAAAAAAAAAAAAAAAAAAAAAAAAAAAAAAAAAAAAAAAAAAAAAAAAAAAAAAAAAAAAAAAAAAAAAAAAAAAAAAAAAAAAAAAAAAAAAAAAAAAAAAAAAAAAAAAAAAAAAAAAAAAAAAAAAAAAAAAAAAAAAAAAAAAAAAAAAAAAAAAAAAAAAAAAAAAAAAAAAAAAAAAAAAAAAAAAAAAAAAAAAAAAAAAAAAAAAAAAAAAAAAAAAAAAAAAAAAAAAAAAAAAAAAAAAAAAAAAAAAAAAAAAAAAAAAAAAAAAAAAAAAAAAAAAAAAAAAAAAAAAAAAAAAAAAAAAAAAAAAAAAAAAAAAAAAAAAAAAAAAAAAAAAAAAAAAAAAAAAAAAAAAAAAAAAAAAAAAAAAAAAAAAAAAAAAAAAAAAAAAAAAAAAAAAAAAAAAAAAAAAAAAAAAAAAAAAAAAAAAAAAAAAAAAAAAAAAAAAAAAAAAAAAAAAAAAAAAAAAAAAAAAAAAAAAAAAAAAAAAAAAAAAAAAAAAAAAAAAAAAAAAAAAAAAAAAAAAAAAAAAAAAAAAAAAAAAAAAAAAAAAAAAAAAAAAAAAAAAAAAAAAAAAAAAAAAAAAAAAAAAAAAAAAAAAAAAAAAAAAAAAAAAAAAAAAAAAAAAAAAAAAAAAAAAAAAAAAAAAAAAAAAAAAAAAAAAAAAAAAAAAAAAAAAAAAAAAAAAAAAAAAAAAAAAAAAAAAAAAAAAAAAAAAAAAAAAAAAAAAAAAAAAAAAAAAAAAAAAAAAAAAAAAAAAAAAAAAAAAAAAAAAAAAAAAAAAAAAAAAAAAAAAAAAAAAAAAAAAAAAAAAAAAAAAAAAAAAAAAAAAAAAAAAAAAAAAAAAAAAAAAAAAAAAAAAAAAAAAAAAAAAAAAAAAAAAAAAAAAAAAAAAAAAAAAAAAAAAAAAAAAAAAAAAAAAAAAAAAAAAAAAAAAAAAAAAAAAAAAAAAAAAAAAAAAAAAAAAAAAAAAAAAAAAAAAAAAAAAAAAAAAAAAAAAAAAAAAAAAAAAAAAAAAAAAAAAAAAAAAAAAAAAAAAAAAAAAAAAAAAAAAAAAAAAAAAAAAAAAAAAAAAAAAAAAAAAAAAAAAAAAAAAAAAAAAAAAAAAAAAAAAAAAAAAAAAAAAAAAAAAAAAAAAAAAAAAAAAAAAAAAAAAAAAAAAAAAAAAAAAAAAAAAAAAAAAAAAAAAAAAAAAAAAAAAAAAAAAAAAAAAAAAAAAAAAAAAAAAAAAAAAAAAAAAAAAAAAAAAAAAAAAAAAAAAAAAAAAAAAAAAAAAAAAAAAAAAAAAAAAAAAAAAAAAAAAAAAAAAAAAAAAAAAAAAAAAAAAAAAAAAAAAAAAAAAAAAAAAAAAAAAAAAAAAAAAAAAAAAAAAAAAAAAAAAAAAAAAAAAAAAAAAAAAAAAAAAAAAAAAAAAAAAAAAAAAAAAAAAAAAAAAAAAAAAAAAAAAAAAAAAAAAAAAAAAAAAAAAAAAAAAAAAAAAAAAAAAAAAAAAAAAAAAAAAAAAAAAAAAAAAAAAAAAAAAAAAAAAAAAAAAAAAAAAAAAAAAAAAAAAAAAAAAAAAAAAAAAAAAAAAAAAAAAAAAAAAAAAAAAAAAAAAAPZYQN14aMkstqtdfQFjKoC7FE+BYTaGxoNZBn3lNmKg42g8tHfflBoojKHona81u7ZHptkZhTJd1a2ncZeCAQ+seic=</c2pa:manifest></metadata>
<defs>
<linearGradient id="vol-cielo" x1="0" y1="0" x2="0" y2="1"><stop offset="0" stop-color="#0e0f16"/><stop offset=".45" stop-color="#231a24"/><stop offset=".8" stop-color="#5a1f18"/><stop offset="1" stop-color="#7a2a15"/></linearGradient>
<radialGradient id="vol-brillo" cx="300" cy="300" r="260" gradientUnits="userSpaceOnUse"><stop offset="0" stop-color="#ffb347" stop-opacity=".75"/><stop offset=".35" stop-color="#e2562b" stop-opacity=".35"/><stop offset="1" stop-color="#8f2d20" stop-opacity="0"/></radialGradient>
<linearGradient id="vol-lava" x1="0" y1="0" x2="0" y2="1"><stop offset="0" stop-color="#fff0a8"/><stop offset=".25" stop-color="#ffb02e"/><stop offset=".7" stop-color="#e2452a"/><stop offset="1" stop-color="#9b1f14"/></linearGradient>
<linearGradient id="vol-monte" x1="0" y1="0" x2="0" y2="1"><stop offset="0" stop-color="#2a1d1f"/><stop offset="1" stop-color="#0f0c0e"/></linearGradient>
<linearGradient id="vol-humo" x1="0" y1="0" x2="0" y2="1"><stop offset="0" stop-color="#6d6470" stop-opacity=".55"/><stop offset="1" stop-color="#8a5a4a" stop-opacity=".85"/></linearGradient>
<filter id="vol-difuso" x="-50%" y="-50%" width="200%" height="200%"><feGaussianBlur stdDeviation="10"/></filter>
</defs>
<rect width="600" height="900" fill="#121317"/>
<rect width="600" height="560" fill="url(#vol-cielo)"/>
<circle cx="208" cy="64" r="1.3" fill="#f3ede1" fill-opacity="0.32"/>
<circle cx="467" cy="55" r="1.3" fill="#f3ede1" fill-opacity="0.33"/>
<circle cx="304" cy="46" r="1" fill="#f3ede1" fill-opacity="0.51"/>
<circle cx="165" cy="128" r="0.8" fill="#f3ede1" fill-opacity="0.71"/>
<circle cx="104" cy="76" r="1.3" fill="#f3ede1" fill-opacity="0.59"/>
<circle cx="72" cy="134" r="0.8" fill="#f3ede1" fill-opacity="0.79"/>
<circle cx="64" cy="177" r="1" fill="#f3ede1" fill-opacity="0.51"/>
<circle cx="321" cy="131" r="1.3" fill="#f3ede1" fill-opacity="0.71"/>
<circle cx="134" cy="133" r="1.3" fill="#f3ede1" fill-opacity="0.39"/>
<circle cx="91" cy="154" r="1.3" fill="#f3ede1" fill-opacity="0.33"/>
<circle cx="147" cy="149" r="1" fill="#f3ede1" fill-opacity="0.69"/>
<circle cx="282" cy="188" r="1" fill="#f3ede1" fill-opacity="0.45"/>
<circle cx="453" cy="152" r="0.8" fill="#f3ede1" fill-opacity="0.34"/>
<circle cx="196" cy="119" r="1" fill="#f3ede1" fill-opacity="0.66"/>
<circle cx="190" cy="197" r="0.8" fill="#f3ede1" fill-opacity="0.56"/>
<circle cx="126" cy="95" r="1" fill="#f3ede1" fill-opacity="0.51"/>
<circle cx="540" cy="52" r="1.3" fill="#f3ede1" fill-opacity="0.59"/>
<circle cx="495" cy="90" r="1.3" fill="#f3ede1" fill-opacity="0.48"/>
<circle cx="298" cy="168" r="0.8" fill="#f3ede1" fill-opacity="0.72"/>
<circle cx="531" cy="116" r="1.3" fill="#f3ede1" fill-opacity="0.33"/>
<circle cx="420" cy="90" r="1.3" fill="#f3ede1" fill-opacity="0.80"/>
<circle cx="467" cy="86" r="1" fill="#f3ede1" fill-opacity="0.74"/>
<circle cx="220" cy="191" r="1" fill="#f3ede1" fill-opacity="0.38"/>
<circle cx="101" cy="49" r="1" fill="#f3ede1" fill-opacity="0.36"/>
<circle cx="169" cy="103" r="1" fill="#f3ede1" fill-opacity="0.34"/>
<circle cx="274" cy="128" r="0.8" fill="#f3ede1" fill-opacity="0.71"/>
<circle cx="489" cy="85" r="1" fill="#f3ede1" fill-opacity="0.79"/>
<circle cx="395" cy="101" r="0.8" fill="#f3ede1" fill-opacity="0.38"/>
<circle cx="132" cy="77" r="0.8" fill="#f3ede1" fill-opacity="0.31"/>
<circle cx="472" cy="69" r="1" fill="#f3ede1" fill-opacity="0.30"/>
<circle cx="258" cy="99" r="1.3" fill="#f3ede1" fill-opacity="0.46"/>
<circle cx="105" cy="177" r="1.3" fill="#f3ede1" fill-opacity="0.63"/>
<circle cx="425" cy="113" r="1.3" fill="#f3ede1" fill-opacity="0.70"/>
<circle cx="244" cy="104" r="0.8" fill="#f3ede1" fill-opacity="0.54"/>
<circle cx="248" cy="70" r="0.8" fill="#f3ede1" fill-opacity="0.52"/>
<circle cx="97" cy="136" r="0.8" fill="#f3ede1" fill-opacity="0.30"/>
<circle cx="119" cy="56" r="1" fill="#f3ede1" fill-opacity="0.61"/>
<circle cx="77" cy="73" r="1" fill="#f3ede1" fill-opacity="0.37"/>
<circle cx="171" cy="96" r="1" fill="#f3ede1" fill-opacity="0.54"/>
<circle cx="100" cy="118" r="1" fill="#f3ede1" fill-opacity="0.54"/>
<circle cx="202" cy="63" r="1.3" fill="#f3ede1" fill-opacity="0.47"/>
<circle cx="178" cy="173" r="0.8" fill="#f3ede1" fill-opacity="0.56"/>
<circle cx="147" cy="192" r="1" fill="#f3ede1" fill-opacity="0.37"/>
<circle cx="322" cy="44" r="1.3" fill="#f3ede1" fill-opacity="0.45"/>
<circle cx="374" cy="55" r="1" fill="#f3ede1" fill-opacity="0.56"/>
<rect width="600" height="560" fill="url(#vol-brillo)"/>
<g filter="url(#vol-difuso)" opacity=".9"><circle cx="300" cy="250" r="34" fill="url(#vol-humo)"/><circle cx="284" cy="222" r="38" fill="url(#vol-humo)"/><circle cx="318" cy="208" r="40" fill="url(#vol-humo)"/><circle cx="296" cy="180" r="46" fill="url(#vol-humo)"/><circle cx="262" cy="160" r="40" fill="url(#vol-humo)"/><circle cx="338" cy="162" r="44" fill="url(#vol-humo)"/><circle cx="300" cy="140" r="50" fill="url(#vol-humo)"/><circle cx="250" cy="128" r="42" fill="url(#vol-humo)"/><circle cx="352" cy="124" r="46" fill="url(#vol-humo)"/><circle cx="296" cy="104" r="48" fill="url(#vol-humo)"/><circle cx="226" cy="110" r="36" fill="url(#vol-humo)"/><circle cx="380" cy="100" r="38" fill="url(#vol-humo)"/><circle cx="320" cy="86" r="42" fill="url(#vol-humo)"/><circle cx="268" cy="88" r="40" fill="url(#vol-humo)"/></g>
<g opacity=".95"><circle cx="300" cy="250" r="27" fill="#4a3f48" fill-opacity=".55"/><circle cx="284" cy="222" r="30" fill="#4a3f48" fill-opacity=".55"/><circle cx="318" cy="208" r="32" fill="#4a3f48" fill-opacity=".55"/><circle cx="296" cy="180" r="37" fill="#4a3f48" fill-opacity=".55"/><circle cx="262" cy="160" r="32" fill="#4a3f48" fill-opacity=".55"/><circle cx="338" cy="162" r="35" fill="#4a3f48" fill-opacity=".55"/><circle cx="300" cy="140" r="40" fill="#4a3f48" fill-opacity=".55"/><circle cx="250" cy="128" r="34" fill="#4a3f48" fill-opacity=".55"/><circle cx="352" cy="124" r="37" fill="#4a3f48" fill-opacity=".55"/><circle cx="296" cy="104" r="38" fill="#4a3f48" fill-opacity=".55"/><circle cx="226" cy="110" r="29" fill="#4a3f48" fill-opacity=".55"/><circle cx="380" cy="100" r="30" fill="#4a3f48" fill-opacity=".55"/><circle cx="320" cy="86" r="34" fill="#4a3f48" fill-opacity=".55"/><circle cx="268" cy="88" r="32" fill="#4a3f48" fill-opacity=".55"/></g>
<ellipse cx="300" cy="300" rx="70" ry="40" fill="#ffb347" fill-opacity=".55" filter="url(#vol-difuso)"/>
<path d="M-10,560 L-10,520 C60,505 130,470 190,420 C230,385 262,330 276,300 L286,306 L300,300 L314,306 L324,300 C338,330 370,385 410,420 C470,470 540,505 610,520 L610,560 Z" fill="url(#vol-monte)"/>
<path d="M292,304 C286,340 270,370 248,400 C228,428 214,452 200,480 C192,498 186,520 182,560 L194,560 C198,522 206,500 214,484 C230,454 244,432 260,406 C280,374 294,344 300,306 Z" fill="#ff7a1f" fill-opacity=".35" filter="url(#vol-difuso)"/>
<path d="M292,304 C286,340 270,370 248,400 C228,428 214,452 200,480 C192,498 186,520 182,560 L194,560 C198,522 206,500 214,484 C230,454 244,432 260,406 C280,374 294,344 300,306 Z" fill="url(#vol-lava)"/>
<path d="M308,304 C318,336 336,366 352,392 C372,424 396,450 420,476 C436,494 452,520 462,560 L472,560 C462,518 448,492 430,470 C406,442 384,418 366,388 C348,358 326,334 312,304 Z" fill="#ff7a1f" fill-opacity=".35" filter="url(#vol-difuso)"/>
<path d="M308,304 C318,336 336,366 352,392 C372,424 396,450 420,476 C436,494 452,520 462,560 L472,560 C462,518 448,492 430,470 C406,442 384,418 366,388 C348,358 326,334 312,304 Z" fill="url(#vol-lava)"/>
<path d="M300,306 C302,340 304,372 312,404 C318,430 322,452 322,480 L330,480 C330,452 326,428 320,402 C314,372 308,340 304,306 Z" fill="#ff7a1f" fill-opacity=".35" filter="url(#vol-difuso)"/>
<path d="M300,306 C302,340 304,372 312,404 C318,430 322,452 322,480 L330,480 C330,452 326,428 320,402 C314,372 308,340 304,306 Z" fill="url(#vol-lava)"/>
<path d="M286,306 C288,286 292,268 300,246 C308,268 312,286 314,306 Z" fill="url(#vol-lava)"/>
<circle cx="342.1" cy="247.6" r="1.4" fill="#ff8a3a" fill-opacity="0.85"/>
<circle cx="322.8" cy="174.4" r="2.4" fill="#ffb347" fill-opacity="0.92"/>
<circle cx="357.8" cy="198.7" r="1.4" fill="#fff0a8" fill-opacity="0.74"/>
<circle cx="280.8" cy="281.0" r="1.5" fill="#ff8a3a" fill-opacity="0.68"/>
<circle cx="311.7" cy="230.6" r="2.5" fill="#ff8a3a" fill-opacity="0.98"/>
<circle cx="288.5" cy="247.1" r="1.4" fill="#ffb347" fill-opacity="0.74"/>
<circle cx="295.9" cy="146.0" r="2.1" fill="#ffd27a" fill-opacity="0.79"/>
<circle cx="331.0" cy="175.3" r="1.2" fill="#ffd27a" fill-opacity="0.96"/>
<circle cx="352.5" cy="193.2" r="1.9" fill="#ffb347" fill-opacity="0.77"/>
<circle cx="307.9" cy="263.9" r="2.7" fill="#fff0a8" fill-opacity="0.79"/>
<circle cx="313.7" cy="266.7" r="1.3" fill="#ffb347" fill-opacity="0.61"/>
<circle cx="312.4" cy="214.7" r="2.2" fill="#fff0a8" fill-opacity="0.86"/>
<circle cx="277.4" cy="206.4" r="1.2" fill="#ffd27a" fill-opacity="0.92"/>
<circle cx="313.6" cy="264.1" r="2.3" fill="#ffb347" fill-opacity="0.77"/>
<circle cx="372.0" cy="197.3" r="1.4" fill="#ff8a3a" fill-opacity="0.69"/>
<circle cx="300.3" cy="174.7" r="1.6" fill="#fff0a8" fill-opacity="0.93"/>
<circle cx="224.7" cy="216.3" r="2.6" fill="#fff0a8" fill-opacity="0.93"/>
<circle cx="323.6" cy="267.2" r="1.3" fill="#ffd27a" fill-opacity="0.95"/>
<circle cx="343.8" cy="208.5" r="2.4" fill="#ffb347" fill-opacity="0.67"/>
<circle cx="295.1" cy="179.9" r="2.0" fill="#ff8a3a" fill-opacity="0.87"/>
<circle cx="304.3" cy="211.4" r="2.4" fill="#ffd27a" fill-opacity="0.70"/>
<circle cx="257.0" cy="184.3" r="1.9" fill="#ffd27a" fill-opacity="0.90"/>
<circle cx="349.2" cy="239.9" r="2.1" fill="#ffb347" fill-opacity="0.88"/>
<circle cx="292.9" cy="205.0" r="1.9" fill="#ffb347" fill-opacity="0.88"/>
<circle cx="381.1" cy="186.5" r="1.5" fill="#ffb347" fill-opacity="0.94"/>
<circle cx="277.9" cy="267.3" r="1.8" fill="#ffd27a" fill-opacity="0.87"/>
<circle cx="294.0" cy="246.8" r="1.5" fill="#ffd27a" fill-opacity="0.96"/>
<circle cx="239.7" cy="204.6" r="2.2" fill="#ffb347" fill-opacity="0.70"/>
<circle cx="254.2" cy="232.2" r="2.3" fill="#ffd27a" fill-opacity="0.76"/>
<circle cx="297.0" cy="145.4" r="2.5" fill="#ffb347" fill-opacity="0.88"/>
<circle cx="352.8" cy="252.4" r="1.8" fill="#ff8a3a" fill-opacity="0.73"/>
<circle cx="309.7" cy="273.9" r="2.0" fill="#fff0a8" fill-opacity="0.88"/>
<circle cx="283.2" cy="208.9" r="1.5" fill="#ffd27a" fill-opacity="0.65"/>
<circle cx="333.1" cy="260.4" r="2.6" fill="#ffd27a" fill-opacity="0.71"/>
<circle cx="218.7" cy="216.5" r="1.5" fill="#ffb347" fill-opacity="0.93"/>
<circle cx="358.4" cy="209.4" r="2.7" fill="#fff0a8" fill-opacity="0.66"/>
<circle cx="359.6" cy="228.8" r="2.3" fill="#ffd27a" fill-opacity="0.71"/>
<circle cx="322.3" cy="257.7" r="2.6" fill="#ff8a3a" fill-opacity="0.98"/>
<circle cx="327.3" cy="173.9" r="1.2" fill="#ffb347" fill-opacity="0.63"/>
<circle cx="345.0" cy="233.7" r="1.6" fill="#fff0a8" fill-opacity="0.97"/>
<circle cx="284.9" cy="261.1" r="1.9" fill="#ffb347" fill-opacity="0.98"/>
<circle cx="338.9" cy="261.4" r="1.3" fill="#ff8a3a" fill-opacity="0.85"/>
<circle cx="302.6" cy="247.3" r="1.8" fill="#ffb347" fill-opacity="0.71"/>
<circle cx="370.4" cy="168.9" r="1.1" fill="#ffd27a" fill-opacity="0.89"/>
<circle cx="304.1" cy="249.6" r="1.9" fill="#fff0a8" fill-opacity="0.64"/>
<circle cx="338.9" cy="231.9" r="1.9" fill="#fff0a8" fill-opacity="0.99"/>
<circle cx="284.1" cy="249.4" r="1.4" fill="#ffb347" fill-opacity="0.93"/>
<circle cx="334.6" cy="199.3" r="1.7" fill="#ff8a3a" fill-opacity="0.99"/>
<circle cx="313.8" cy="277.5" r="2.1" fill="#ff8a3a" fill-opacity="0.77"/>
<circle cx="230.0" cy="223.8" r="1.7" fill="#ff8a3a" fill-opacity="0.84"/>
<circle cx="309.5" cy="270.2" r="1.3" fill="#ff8a3a" fill-opacity="0.78"/>
<circle cx="245.6" cy="163.3" r="2.8" fill="#ff8a3a" fill-opacity="0.70"/>
<circle cx="342.7" cy="257.1" r="1.6" fill="#ffd27a" fill-opacity="0.73"/>
<circle cx="263.2" cy="255.4" r="2.2" fill="#ffb347" fill-opacity="0.80"/>
<circle cx="259.4" cy="263.4" r="1.2" fill="#fff0a8" fill-opacity="0.83"/>
<circle cx="289.3" cy="236.3" r="2.1" fill="#ffd27a" fill-opacity="0.83"/>
<circle cx="305.8" cy="176.6" r="2.2" fill="#fff0a8" fill-opacity="0.91"/>
<circle cx="330.5" cy="217.3" r="1.5" fill="#ffb347" fill-opacity="0.62"/>
<circle cx="370.2" cy="184.8" r="2.1" fill="#ffb347" fill-opacity="0.96"/>
<circle cx="338.4" cy="211.0" r="2.5" fill="#ffd27a" fill-opacity="0.93"/>
<circle cx="318.8" cy="159.7" r="2.2" fill="#ffb347" fill-opacity="0.63"/>
<circle cx="230.7" cy="228.3" r="2.7" fill="#fff0a8" fill-opacity="0.93"/>
<circle cx="310.0" cy="193.0" r="2.1" fill="#ffb347" fill-opacity="0.80"/>
<circle cx="212.5" cy="221.7" r="2.3" fill="#ffd27a" fill-opacity="0.86"/>
<circle cx="225.6" cy="215.7" r="1.5" fill="#ffd27a" fill-opacity="0.94"/>
<circle cx="250.3" cy="190.4" r="1.4" fill="#fff0a8" fill-opacity="0.80"/>
<circle cx="283.9" cy="213.8" r="2.2" fill="#ffd27a" fill-opacity="0.85"/>
<circle cx="308.0" cy="265.2" r="1.3" fill="#ff8a3a" fill-opacity="0.86"/>
<circle cx="331.8" cy="200.1" r="1.2" fill="#fff0a8" fill-opacity="0.62"/>
<circle cx="260.1" cy="196.9" r="2.2" fill="#fff0a8" fill-opacity="0.72"/>
<rect y="560" width="600" height="340" fill="#121317"/>
<rect x="0" y="556" width="600" height="6" fill="#e2562b" fill-opacity=".35"/>
<rect x="24" y="24" width="552" height="852" fill="none" stroke="#c9a227" stroke-width="3"/>
<rect x="36" y="36" width="528" height="828" fill="none" stroke="#c9a227" stroke-width="1"/>
<text x="300" y="92" text-anchor="middle" font-family="Georgia, serif" font-size="24" fill="#f3d9a4" letter-spacing="6">GEOLOGÍA</text>
<text x="300" y="665" text-anchor="middle" font-family="Georgia, serif" font-size="80" font-weight="bold" fill="#f3ede1" letter-spacing="2">Los volcanes</text>
<line x1="150" y1="700" x2="450" y2="700" stroke="#c9a227" stroke-width="2"/>
<text x="300" y="746" text-anchor="middle" font-family="Georgia, serif" font-size="29" font-style="italic" fill="#e8dcc0">El fuego que da forma</text>
<text x="300" y="782" text-anchor="middle" font-family="Georgia, serif" font-size="29" font-style="italic" fill="#e8dcc0">a la Tierra</text>
<text x="300" y="848" text-anchor="middle" font-family="Georgia, serif" font-size="18" fill="#a9a4b0" letter-spacing="4">BIBLIOTECA</text>
</svg>
