<svg xmlns="http://www.w3.org/2000/svg" viewBox="0 0 600 900" width="600" height="900" xmlns:c2pa="http://c2pa.org/manifest"><metadata><c2pa:manifest>AAAWgmp1bWIAAAAeanVtZGMycGEAEQAQgAAAqgA4m3EDYzJwYQAAABZcanVtYgAAAEdqdW1kYzJtYQARABCAAACqADibcQN1cm46YzJwYToxMDZlOGQ2Ny02MzJiLTQ3OGItOTRhOS0wOTJlNzIzZThiZWMAAAADl2p1bWIAAAApanVtZGMyYXMAEQAQgAAAqgA4m3EDYzJwYS5hc3NlcnRpb25zAAAAALxqdW1iAAAARGp1bWRjYm9yABEAEIAAAKoAOJtxE2MycGEuaW5ncmVkaWVudC52MwAAAAAYYzJzaH3WZhulEogtzE5LdMLo9LMAAABwY2JvcqNpZGM6Zm9ybWF0bWltYWdlL3N2Zyt4bWxqaW5zdGFuY2VJRHgseG1wOmlpZDplZmQ1MWFiYS05OTk4LTQ2OTEtOTNmYS0yZTgyM2Y3M2EyNTNscmVsYXRpb25zaGlwaHBhcmVudE9mAAAB4mp1bWIAAABBanVtZGNib3IAEQAQgAAAqgA4m3ETYzJwYS5hY3Rpb25zLnYyAAAAABhjMnNo/UFSImLcaVz/P98xHU27VgAAAZljYm9yomdhY3Rpb25zgqJmYWN0aW9ua2MycGEub3BlbmVkanBhcmFtZXRlcnOha2luZ3JlZGllbnRzgaJjdXJseC1zZWxmI2p1bWJmPWMycGEuYXNzZXJ0aW9ucy9jMnBhLmluZ3JlZGllbnQudjNkaGFzaFggGpgh5F1HLzkWX3e8H0OPuvpXhkN3hfTjb4IdKqS+Pb6kZmFjdGlvbngdY29tLmFudGhyb3BpYy5jbGF1ZGUucHJvdmlkZWRqcGFyYW1ldGVyc6F4H2NvbS5hbnRocm9waWMub3JpZ2luLWNvbmZpZGVuY2VndW5rbm93bmtkZXNjcmlwdGlvbnhmQ2xhdWRlIHByb3ZpZGVkIHRoaXMgZmlsZSBhdCB0aGUgcmVxdWVzdCBvZiBhIHVzZXIgYW5kIG1heSBoYXZlIGNyZWF0ZWQgb3IgbW9kaWZpZWQgdGhlIGZpbGUgY29udGVudHMubXNvZnR3YXJlQWdlbnShZG5hbWVmQ2xhdWRlcmFsbEFjdGlvbnNJbmNsdWRlZPUAAADIanVtYgAAAEBqdW1kY2JvcgARABCAAACqADibcRNjMnBhLmhhc2guZGF0YQAAAAAYYzJzaJf2OvlmLWP+XYCQpIFaG4kAAACAY2JvcqVjYWxnZnNoYTI1NmNwYWRNAAAAAAAAAAAAAAAAAGRoYXNoWCA/XxeVGxF5DnEHOg0Sae7L6aYBzyRyUk9gTkytw8cP1WRuYW1lbmp1bWJmIG1hbmlmZXN0amV4Y2x1c2lvbnOBomVzdGFydBiWZmxlbmd0aBkeBAAAAj5qdW1iAAAAJ2p1bWRjMmNsABEAEIAAAKoAOJtxA2MycGEuY2xhaW0udjIAAAACD2Nib3KlY2FsZ2ZzaGEyNTZpc2lnbmF0dXJleE1zZWxmI2p1bWJmPS9jMnBhL3VybjpjMnBhOjEwNmU4ZDY3LTYzMmItNDc4Yi05NGE5LTA5MmU3MjNlOGJlYy9jMnBhLnNpZ25hdHVyZWppbnN0YW5jZUlEeCx4bXA6aWlkOjE0NGI4MTNjLTE1NWMtNGRlNC05M2I1LTllYWJlYWRmZGI5OHJjcmVhdGVkX2Fzc2VydGlvbnODomN1cmx4LXNlbGYjanVtYmY9YzJwYS5hc3NlcnRpb25zL2MycGEuaW5ncmVkaWVudC52M2RoYXNoWCAamCHkXUcvORZfd7wfQ4+6+leGQ3eF9ONvgh0qpL49vqJjdXJseCpzZWxmI2p1bWJmPWMycGEuYXNzZXJ0aW9ucy9jMnBhLmFjdGlvbnMudjJkaGFzaFggkIpGAFK2+vlvbSfXweXsKZ8b084nDKl1FkHd0vLLBmyiY3VybHgpc2VsZiNqdW1iZj1jMnBhLmFzc2VydGlvbnMvYzJwYS5oYXNoLmRhdGFkaGFzaFgg7UJ0mPWNFzgDOtYouqG2wXqgJVMqxhm3uC54hmVLymt0Y2xhaW1fZ2VuZXJhdG9yX2luZm+jZG5hbWVvQW50aHJvcGljIEZpbGVzZ3ZlcnNpb25lMS4wLjBrc3BlY1ZlcnNpb25lMi40LjAAABA4anVtYgAAAChqdW1kYzJjcwARABCAAACqADibcQNjMnBhLnNpZ25hdHVyZQAAABAIY2JvctKEWQISogEmGCFZAgowggIGMIIBjaADAgECAhRA5aAK7sI50L64g/oGQgU9Z1UTADAKBggqhkjOPQQDAzBJMRcwFQYDVQQKEw5BbnRocm9waWMsIFBCQzEuMCwGA1UEAxMlQW50aHJvcGljIENvbnRlbnQgQ3JlZGVudGlhbHMgUm9vdCBDQTAeFw0yNjA4MDcxODQzNTZaFw0yODA4MDYxOTQzNTZaMEQxFzAVBgNVBAoTDkFudGhyb3BpYywgUEJDMSkwJwYDVQQDEyBBbnRocm9waWMgQ2xhdWRlIENvbnRlbnQgU2lnbmluZzBZMBMGByqGSM49AgEGCCqGSM49AwEHA0IABJh6CmvLUBgFFNU0vUKlOVtE6djd17L5SuwX0LemFisBM3dkd/3cyjxFA3Qo5S46fX0/ihY0VZ7mfb9KF703t5OjWDBWMA4GA1UdDwEB/wQEAwIHgDAVBgNVHSUEDjAMBgorBgEEAYPoXgIBMAwGA1UdEwEB/wQCMAAwHwYDVR0jBBgwFoAUzlHiBIFOZFsj+OPEz5o+nMHXXMIwCgYIKoZIzj0EAwMDZwAwZAIwMXMdFJ4BetLLVY7ORuE9noqbbAZOZn/aArXyTwFAZfKrPzxF2vPoJNf1+UCdg1XGAjBwX1zd9WGqYkqmL5SFqw1QySjr1zJfpJM9+1rdDwSPLMOPOjKuiXjoU/pUUeG9RwmhY3BhZFkNngAAAAAAAAAAAAAAAAAAAAAAAAAAAAAAAAAAAAAAAAAAAAAAAAAAAAAAAAAAAAAAAAAAAAAAAAAAAAAAAAAAAAAAAAAAAAAAAAAAAAAAAAAAAAAAAAAAAAAAAAAAAAAAAAAAAAAAAAAAAAAAAAAAAAAAAAAAAAAAAAAAAAAAAAAAAAAAAAAAAAAAAAAAAAAAAAAAAAAAAAAAAAAAAAAAAAAAAAAAAAAAAAAAAAAAAAAAAAAAAAAAAAAAAAAAAAAAAAAAAAAAAAAAAAAAAAAAAAAAAAAAAAAAAAAAAAAAAAAAAAAAAAAAAAAAAAAAAAAAAAAAAAAAAAAAAAAAAAAAAAAAAAAAAAAAAAAAAAAAAAAAAAAAAAAAAAAAAAAAAAAAAAAAAAAAAAAAAAAAAAAAAAAAAAAAAAAAAAAAAAAAAAAAAAAAAAAAAAAAAAAAAAAAAAAAAAAAAAAAAAAAAAAAAAAAAAAAAAAAAAAAAAAAAAAAAAAAAAAAAAAAAAAAAAAAAAAAAAAAAAAAAAAAAAAAAAAAAAAAAAAAAAAAAAAAAAAAAAAAAAAAAAAAAAAAAAAAAAAAAAAAAAAAAAAAAAAAAAAAAAAAAAAAAAAAAAAAAAAAAAAAAAAAAAAAAAAAAAAAAAAAAAAAAAAAAAAAAAAAAAAAAAAAAAAAAAAAAAAAAAAAAAAAAAAAAAAAAAAAAAAAAAAAAAAAAAAAAAAAAAAAAAAAAAAAAAAAAAAAAAAAAAAAAAAAAAAAAAAAAAAAAAAAAAAAAAAAAAAAAAAAAAAAAAAAAAAAAAAAAAAAAAAAAAAAAAAAAAAAAAAAAAAAAAAAAAAAAAAAAAAAAAAAAAAAAAAAAAAAAAAAAAAAAAAAAAAAAAAAAAAAAAAAAAAAAAAAAAAAAAAAAAAAAAAAAAAAAAAAAAAAAAAAAAAAAAAAAAAAAAAAAAAAAAAAAAAAAAAAAAAAAAAAAAAAAAAAAAAAAAAAAAAAAAAAAAAAAAAAAAAAAAAAAAAAAAAAAAAAAAAAAAAAAAAAAAAAAAAAAAAAAAAAAAAAAAAAAAAAAAAAAAAAAAAAAAAAAAAAAAAAAAAAAAAAAAAAAAAAAAAAAAAAAAAAAAAAAAAAAAAAAAAAAAAAAAAAAAAAAAAAAAAAAAAAAAAAAAAAAAAAAAAAAAAAAAAAAAAAAAAAAAAAAAAAAAAAAAAAAAAAAAAAAAAAAAAAAAAAAAAAAAAAAAAAAAAAAAAAAAAAAAAAAAAAAAAAAAAAAAAAAAAAAAAAAAAAAAAAAAAAAAAAAAAAAAAAAAAAAAAAAAAAAAAAAAAAAAAAAAAAAAAAAAAAAAAAAAAAAAAAAAAAAAAAAAAAAAAAAAAAAAAAAAAAAAAAAAAAAAAAAAAAAAAAAAAAAAAAAAAAAAAAAAAAAAAAAAAAAAAAAAAAAAAAAAAAAAAAAAAAAAAAAAAAAAAAAAAAAAAAAAAAAAAAAAAAAAAAAAAAAAAAAAAAAAAAAAAAAAAAAAAAAAAAAAAAAAAAAAAAAAAAAAAAAAAAAAAAAAAAAAAAAAAAAAAAAAAAAAAAAAAAAAAAAAAAAAAAAAAAAAAAAAAAAAAAAAAAAAAAAAAAAAAAAAAAAAAAAAAAAAAAAAAAAAAAAAAAAAAAAAAAAAAAAAAAAAAAAAAAAAAAAAAAAAAAAAAAAAAAAAAAAAAAAAAAAAAAAAAAAAAAAAAAAAAAAAAAAAAAAAAAAAAAAAAAAAAAAAAAAAAAAAAAAAAAAAAAAAAAAAAAAAAAAAAAAAAAAAAAAAAAAAAAAAAAAAAAAAAAAAAAAAAAAAAAAAAAAAAAAAAAAAAAAAAAAAAAAAAAAAAAAAAAAAAAAAAAAAAAAAAAAAAAAAAAAAAAAAAAAAAAAAAAAAAAAAAAAAAAAAAAAAAAAAAAAAAAAAAAAAAAAAAAAAAAAAAAAAAAAAAAAAAAAAAAAAAAAAAAAAAAAAAAAAAAAAAAAAAAAAAAAAAAAAAAAAAAAAAAAAAAAAAAAAAAAAAAAAAAAAAAAAAAAAAAAAAAAAAAAAAAAAAAAAAAAAAAAAAAAAAAAAAAAAAAAAAAAAAAAAAAAAAAAAAAAAAAAAAAAAAAAAAAAAAAAAAAAAAAAAAAAAAAAAAAAAAAAAAAAAAAAAAAAAAAAAAAAAAAAAAAAAAAAAAAAAAAAAAAAAAAAAAAAAAAAAAAAAAAAAAAAAAAAAAAAAAAAAAAAAAAAAAAAAAAAAAAAAAAAAAAAAAAAAAAAAAAAAAAAAAAAAAAAAAAAAAAAAAAAAAAAAAAAAAAAAAAAAAAAAAAAAAAAAAAAAAAAAAAAAAAAAAAAAAAAAAAAAAAAAAAAAAAAAAAAAAAAAAAAAAAAAAAAAAAAAAAAAAAAAAAAAAAAAAAAAAAAAAAAAAAAAAAAAAAAAAAAAAAAAAAAAAAAAAAAAAAAAAAAAAAAAAAAAAAAAAAAAAAAAAAAAAAAAAAAAAAAAAAAAAAAAAAAAAAAAAAAAAAAAAAAAAAAAAAAAAAAAAAAAAAAAAAAAAAAAAAAAAAAAAAAAAAAAAAAAAAAAAAAAAAAAAAAAAAAAAAAAAAAAAAAAAAAAAAAAAAAAAAAAAAAAAAAAAAAAAAAAAAAAAAAAAAAAAAAAAAAAAAAAAAAAAAAAAAAAAAAAAAAAAAAAAAAAAAAAAAAAAAAAAAAAAAAAAAAAAAAAAAAAAAAAAAAAAAAAAAAAAAAAAAAAAAAAAAAAAAAAAAAAAAAAAAAAAAAAAAAAAAAAAAAAAAAAAAAAAAAAAAAAAAAAAAAAAAAAAAAAAAAAAAAAAAAAAAAAAAAAAAAAAAAAAAAAAAAAAAAAAAAAAAAAAAAAAAAAAAAAAAAAAAAAAAAAAAAAAAAAAAAAAAAAAAAAAAAAAAAAAAAAAAAAAAAAAAAAAAAAAAAAAAAAAAAAAAAAAAAAAAAAAAAAAAAAAAAAAAAAAAAAAAAAAAAAAAAAAAAAAAAAAAAAAAAAAAAAAAAAAAAAAAAAAAAAAAAAAAAAAAAAAAAAAAAAAAAAAAAAAAAAAAAAAAAAAAAAAAAAAAAAAAAAAAAAAAAAAAAAAAAAAAAAAAAAAAAAAAAAAAAAAAAAAAAAAAAAAAAAAAAAAAAAAAAAAAAAAAAAAAAAAAAAAAAAAAAAAAAAAAAAAAAAAAAAAAAAAAAAAAAAAAAAAAAAAAAAAAAAAAAAAAAAAAAAAAAAAAAAAAAAAAAAAAAAAAAAAAAAAAAAAAAAAAAAAAAAAAAAAAAAAAAAAAAAAAAAAAAAAAAAAAAAAAAAAAAAAAAAAAAAAAAAAAAAAAAAAAAAAAAAAAAAAAAAAAAAAAAAAAAAAAAAAAAAAAAAAAAAAAAAAAAAAAAAAAAAAAAAAAAAAAAAAAAAAAAAAAAAAAAAAAAAAAAAAAAAAAAAAAAAAAAAAAAAAAAAAAAAAAAAAAAAAAAAAAAAAAAAAAAAAAAAAAAAAAAAAAAAAAAAAAAAAAAAAAAAAAAAAAAAAAAAAAAAAAAAAAAAAAAAAAAAAAAAAAAAAAAAAAAAAAAAAAAAAAAAAAAAAAAAAAAAAAAAAAAAAAAAAAAAAAAAAAAAAAAAAAAAAAAAAAAAAAAAAAAAAAAAAAAAAAAAAAAAAAAAAAAAAAAAAAAAAAAAAAAAAAAAAAAAAAAAAAAAAAAAAAAAAAAAAAAAAAAAAAAAAAAAAAAAAAAAAAAAAAAAAAAAAAAAAAAAAAAAAAAAAAAAAAAAAAAAAAAAAAAAAAAAAAAAAAAAAAAAAAAAAAAAAAAAAAAAAAAAAAAAAAAAAAAAAAAAAAAAAAAAAAAAAAAAAAAAAAAAAAAAAAAAAAAAAAAAAAAAAAAAAAAAAAAAAAAAAAAAAAAAAAAAAAAAAAAAAAAAAAAAAAAAAAAAAAAAAAAAAAAAAAAAAAAAAAAAAAAAAAAAAAAAAAAAAAAAAAAAAAAAAAAAAAAAAAAAAAAAAAAAAAAAAAAAAAAAAAAAAAAAAAAAAAAAAAAAAAAAAAAAAAAAAAAAAAAAAAAAAAAAAAAAAAAAAAAAAAAAAAAAAAAAAAAAAAAAAAAAAAAAAAAAAAAAAAAAAAAAAAAAAAAAAAAAAAAAAAAAAAAAAAAAAAAAAAAAAAAAAAAAAAAAAAAAAAAAAAAAAAAAAAAAAAAAAAAAAAAAAAAAAAAAAAAAAAAAAAAAAAAAAAAAAAAAAAAAAAAAAAAAAAAAAAAAAAAAAAAAAAAAAAAAAAAAAAAAAAAAAAAAAAAAAAAAAAAAAAAAAAAAAAAAAAAAAAAAAAAAAAAAAAAAAAAAAAAAAAAAAAAAAAAAAAAAAAAAAAAAAAAAAAAAAAAAAAAAAAAAAAAAAAAAAAAAAAAAAAAAAAAAAAAAAAAAAAAAAAAAAAAAAAAAAAAAAAAAAAAAAAAAAAAAAAAAAAAAAAAAAAAAAAAAAAAAAAAAAAAAAAAAAAAAAAAAAAAAAAAAAAAAAAAAAAAAAAAAAAAAAAAAAAAAAAAAAAAAAAAAAAAAAAAAAAAAAAAAAAAAAAAAAAAAAAAAAAAAAAAAAAAAAAAAAAAAAAAAAAAAAAAAAAAAAAAAAAAAAAAAAAAAAAAAAAAAAAAAAAAAAAAAAAAAAAAAAAAAAAAAAAAAAAAAAAAAAAAPZYQBc6ezMPfF3vS703EXR5fTYKIQWIN0Mi0RdMy0YXBEJ6snSOABonQGY64a41OhOukxCCY37Qox3sSeotmdi69pY=</c2pa:manifest></metadata>
<defs>
<linearGradient id="cer-fondo" x1="0" y1="0" x2="0" y2="1">
<stop offset="0" stop-color="#140c24"/><stop offset=".55" stop-color="#26143d"/><stop offset="1" stop-color="#170d28"/>
</linearGradient>
<radialGradient id="cer-luz" cx=".5" cy=".42" r=".45">
<stop offset="0" stop-color="#b37ad6" stop-opacity=".45"/><stop offset=".6" stop-color="#6b3a8f" stop-opacity=".15"/><stop offset="1" stop-color="#6b3a8f" stop-opacity="0"/>
</radialGradient>
<filter id="cer-brillo" x="-20%" y="-20%" width="140%" height="140%">
<feGaussianBlur stdDeviation="5" result="b"/>
<feMerge><feMergeNode in="b"/><feMergeNode in="SourceGraphic"/></feMerge>
</filter>
<filter id="cer-halo" x="-50%" y="-50%" width="200%" height="200%"><feGaussianBlur stdDeviation="3"/></filter>
</defs>
<rect width="600" height="900" fill="url(#cer-fondo)"/>
<rect width="600" height="900" fill="url(#cer-luz)"/>
<circle cx="275.2" cy="411.1" r="1.6" fill="#e9d8ff" opacity="0.45"/>
<circle cx="484.6" cy="218.7" r="1.6" fill="#e9d8ff" opacity="0.53"/>
<circle cx="452.3" cy="168.9" r="1.2" fill="#e9d8ff" opacity="0.31"/>
<circle cx="320.1" cy="583.0" r="0.8" fill="#e9d8ff" opacity="0.52"/>
<circle cx="246.0" cy="355.6" r="1" fill="#e9d8ff" opacity="0.53"/>
<circle cx="472.5" cy="152.8" r="0.8" fill="#e9d8ff" opacity="0.34"/>
<circle cx="165.8" cy="135.6" r="1.6" fill="#e9d8ff" opacity="0.40"/>
<circle cx="347.3" cy="221.6" r="1" fill="#e9d8ff" opacity="0.54"/>
<circle cx="299.9" cy="464.5" r="1.6" fill="#e9d8ff" opacity="0.54"/>
<circle cx="251.5" cy="406.7" r="0.8" fill="#e9d8ff" opacity="0.57"/>
<circle cx="203.9" cy="239.4" r="1.2" fill="#e9d8ff" opacity="0.26"/>
<circle cx="332.8" cy="176.1" r="0.8" fill="#e9d8ff" opacity="0.63"/>
<circle cx="241.0" cy="618.2" r="0.8" fill="#e9d8ff" opacity="0.35"/>
<circle cx="522.1" cy="147.2" r="1.6" fill="#e9d8ff" opacity="0.69"/>
<circle cx="246.7" cy="158.0" r="1" fill="#e9d8ff" opacity="0.60"/>
<circle cx="180.3" cy="165.3" r="1.2" fill="#e9d8ff" opacity="0.26"/>
<circle cx="253.2" cy="599.9" r="1" fill="#e9d8ff" opacity="0.36"/>
<circle cx="92.5" cy="151.1" r="1.6" fill="#e9d8ff" opacity="0.33"/>
<circle cx="330.8" cy="352.7" r="1" fill="#e9d8ff" opacity="0.69"/>
<circle cx="440.2" cy="338.0" r="1.6" fill="#e9d8ff" opacity="0.30"/>
<circle cx="258.8" cy="230.7" r="1.2" fill="#e9d8ff" opacity="0.64"/>
<circle cx="546.9" cy="428.2" r="0.8" fill="#e9d8ff" opacity="0.34"/>
<circle cx="245.0" cy="564.3" r="0.8" fill="#e9d8ff" opacity="0.27"/>
<circle cx="116.1" cy="349.6" r="0.8" fill="#e9d8ff" opacity="0.60"/>
<circle cx="211.1" cy="274.1" r="0.8" fill="#e9d8ff" opacity="0.28"/>
<circle cx="148.5" cy="451.0" r="0.8" fill="#e9d8ff" opacity="0.52"/>
<circle cx="233.3" cy="355.7" r="1.6" fill="#e9d8ff" opacity="0.62"/>
<circle cx="110.6" cy="320.8" r="1" fill="#e9d8ff" opacity="0.39"/>
<circle cx="158.8" cy="437.4" r="1" fill="#e9d8ff" opacity="0.32"/>
<circle cx="367.1" cy="408.0" r="1.6" fill="#e9d8ff" opacity="0.65"/>
<circle cx="353.8" cy="339.2" r="0.8" fill="#e9d8ff" opacity="0.30"/>
<circle cx="306.4" cy="252.7" r="1.6" fill="#e9d8ff" opacity="0.37"/>
<circle cx="468.3" cy="430.2" r="1.2" fill="#e9d8ff" opacity="0.48"/>
<circle cx="523.2" cy="628.1" r="1" fill="#e9d8ff" opacity="0.35"/>
<circle cx="330.9" cy="563.2" r="0.8" fill="#e9d8ff" opacity="0.38"/>
<circle cx="517.0" cy="226.1" r="0.8" fill="#e9d8ff" opacity="0.28"/>
<circle cx="253.9" cy="249.5" r="0.8" fill="#e9d8ff" opacity="0.33"/>
<circle cx="231.8" cy="417.5" r="1" fill="#e9d8ff" opacity="0.29"/>
<circle cx="112.0" cy="354.2" r="1.2" fill="#e9d8ff" opacity="0.55"/>
<circle cx="399.4" cy="423.9" r="1" fill="#e9d8ff" opacity="0.52"/>
<circle cx="520.3" cy="366.9" r="1.2" fill="#e9d8ff" opacity="0.57"/>
<circle cx="540.6" cy="131.1" r="0.8" fill="#e9d8ff" opacity="0.47"/>
<circle cx="419.9" cy="285.8" r="0.8" fill="#e9d8ff" opacity="0.28"/>
<circle cx="324.0" cy="503.2" r="1" fill="#e9d8ff" opacity="0.61"/>
<circle cx="515.8" cy="303.0" r="1.6" fill="#e9d8ff" opacity="0.66"/>
<circle cx="493.0" cy="336.9" r="0.8" fill="#e9d8ff" opacity="0.64"/>
<circle cx="337.9" cy="445.0" r="1.6" fill="#e9d8ff" opacity="0.42"/>
<circle cx="46.5" cy="157.6" r="0.8" fill="#e9d8ff" opacity="0.54"/>
<circle cx="556.5" cy="577.5" r="1.2" fill="#e9d8ff" opacity="0.42"/>
<circle cx="422.2" cy="422.1" r="1.6" fill="#e9d8ff" opacity="0.46"/>
<circle cx="321.5" cy="389.7" r="0.8" fill="#e9d8ff" opacity="0.39"/>
<circle cx="85.6" cy="131.6" r="0.8" fill="#e9d8ff" opacity="0.47"/>
<circle cx="359.5" cy="598.6" r="1.2" fill="#e9d8ff" opacity="0.65"/>
<circle cx="231.3" cy="194.5" r="1" fill="#e9d8ff" opacity="0.48"/>
<circle cx="432.0" cy="298.1" r="1.6" fill="#e9d8ff" opacity="0.47"/>
<circle cx="165.6" cy="330.5" r="1.2" fill="#e9d8ff" opacity="0.34"/>
<circle cx="264.1" cy="539.1" r="1" fill="#e9d8ff" opacity="0.65"/>
<circle cx="239.9" cy="423.2" r="1.2" fill="#e9d8ff" opacity="0.34"/>
<circle cx="110.0" cy="302.4" r="0.8" fill="#e9d8ff" opacity="0.57"/>
<circle cx="534.0" cy="263.9" r="1" fill="#e9d8ff" opacity="0.30"/>
<circle cx="285.1" cy="601.4" r="1.6" fill="#e9d8ff" opacity="0.42"/>
<circle cx="310.4" cy="469.5" r="1.6" fill="#e9d8ff" opacity="0.39"/>
<circle cx="470.9" cy="264.6" r="0.8" fill="#e9d8ff" opacity="0.56"/>
<circle cx="186.2" cy="304.2" r="0.8" fill="#e9d8ff" opacity="0.54"/>
<circle cx="250.7" cy="218.8" r="1.2" fill="#e9d8ff" opacity="0.36"/>
<circle cx="113.3" cy="144.4" r="0.8" fill="#e9d8ff" opacity="0.45"/>
<circle cx="367.6" cy="460.6" r="1.2" fill="#e9d8ff" opacity="0.68"/>
<circle cx="395.9" cy="223.7" r="1.6" fill="#e9d8ff" opacity="0.37"/>
<circle cx="411.4" cy="512.6" r="0.8" fill="#e9d8ff" opacity="0.33"/>
<circle cx="181.6" cy="299.8" r="1" fill="#e9d8ff" opacity="0.43"/>
<circle cx="451.8" cy="591.2" r="0.8" fill="#e9d8ff" opacity="0.43"/>
<circle cx="504.2" cy="321.7" r="1.6" fill="#e9d8ff" opacity="0.45"/>
<circle cx="365.3" cy="593.2" r="1.6" fill="#e9d8ff" opacity="0.50"/>
<circle cx="379.4" cy="381.4" r="1.2" fill="#e9d8ff" opacity="0.46"/>
<circle cx="378.7" cy="226.5" r="0.8" fill="#e9d8ff" opacity="0.35"/>
<circle cx="508.0" cy="629.9" r="1.2" fill="#e9d8ff" opacity="0.49"/>
<circle cx="451.2" cy="286.6" r="0.8" fill="#e9d8ff" opacity="0.41"/>
<circle cx="83.0" cy="349.3" r="1.6" fill="#e9d8ff" opacity="0.60"/>
<circle cx="293.5" cy="134.8" r="0.8" fill="#e9d8ff" opacity="0.44"/>
<circle cx="58.3" cy="397.2" r="1" fill="#e9d8ff" opacity="0.46"/>
<circle cx="559.9" cy="588.3" r="1.6" fill="#e9d8ff" opacity="0.68"/>
<circle cx="296.1" cy="613.6" r="0.8" fill="#e9d8ff" opacity="0.59"/>
<circle cx="268.5" cy="410.6" r="1" fill="#e9d8ff" opacity="0.49"/>
<circle cx="478.7" cy="411.2" r="1.2" fill="#e9d8ff" opacity="0.55"/>
<circle cx="536.5" cy="572.4" r="1" fill="#e9d8ff" opacity="0.39"/>
<circle cx="113.4" cy="403.3" r="1.2" fill="#e9d8ff" opacity="0.51"/>
<circle cx="144.5" cy="398.7" r="0.8" fill="#e9d8ff" opacity="0.52"/>
<circle cx="54.4" cy="624.1" r="1.6" fill="#e9d8ff" opacity="0.49"/>
<circle cx="554.5" cy="183.4" r="0.8" fill="#e9d8ff" opacity="0.56"/>
<circle cx="74.3" cy="400.1" r="1.6" fill="#e9d8ff" opacity="0.66"/>
<g transform="translate(-8,150) scale(1.05)" fill="none" stroke="#cdb3ec" stroke-linecap="round">
<path d="M90,215 C70,140 150,60 280,55 C400,50 520,110 525,205 C528,245 500,262 470,262 C440,262 420,275 390,285 C330,305 230,305 175,285 C150,276 145,258 160,245 C130,245 100,240 90,215 Z" fill="#b98ae0" fill-opacity=".07" stroke-width="2.4" stroke-opacity=".6"/>
<path d="M318,57 C305,110 290,160 268,222" stroke-width="1.8" stroke-opacity=".38"/>
<path d="M165,245 C230,228 300,215 370,190" stroke-width="1.8" stroke-opacity=".38"/>
<path d="M150,120 C180,105 205,135 235,112 C255,98 270,120 290,100" stroke-width="1.8" stroke-opacity=".38"/>
<path d="M120,175 C160,160 190,190 230,165 C250,152 265,175 285,160" stroke-width="1.8" stroke-opacity=".38"/>
<path d="M355,85 C380,120 405,100 430,128 C450,150 470,130 490,160" stroke-width="1.8" stroke-opacity=".38"/>
<path d="M345,150 C375,165 400,145 425,172 C445,192 470,175 500,205" stroke-width="1.8" stroke-opacity=".38"/>
<path d="M205,268 C245,255 285,275 330,252 C350,242 365,255 380,245" stroke-width="1.8" stroke-opacity=".38"/>
<path d="M115,215 C140,205 160,225 190,212" stroke-width="1.8" stroke-opacity=".38"/>
<path d="M235,75 C245,95 262,85 275,105" stroke-width="1.8" stroke-opacity=".38"/>
<path d="M420,215 C440,230 460,225 480,240" stroke-width="1.8" stroke-opacity=".38"/>
<path d="M340,120 C320,140 330,160 315,180" stroke-width="1.8" stroke-opacity=".38"/>
</g>
<g filter="url(#cer-brillo)">
<g fill="none" stroke="#f0cf6e" stroke-linecap="round"><path d="M300,450 C298,380 306,280 300,190" stroke-width="5.0"/><path d="M300,190 C314,172 330,158 356,138" stroke-width="2.2"/><path d="M300,190 C288,170 272,156 248,136" stroke-width="2.2"/><path d="M300,190 C302,170 302,150 304,126" stroke-width="1.8"/><path d="M328,158 C340,150 356,150 380,156" stroke-width="1.4"/><path d="M274,156 C256,150 240,154 216,162" stroke-width="1.4"/><path d="M301,400 C330,385 362,366 396,340" stroke-width="2.4"/><path d="M301,360 C272,344 240,326 204,300" stroke-width="2.4"/><path d="M301,300 C326,286 348,266 370,240" stroke-width="2.0"/><path d="M300,270 C282,254 264,236 246,212" stroke-width="2.0"/><path d="M276,470 C244,482 210,494 168,520" stroke-width="2.8"/><path d="M282,476 C268,504 254,530 238,566" stroke-width="2.4"/><path d="M324,470 C358,482 388,498 426,528" stroke-width="2.8"/><path d="M316,478 C326,506 336,534 350,570" stroke-width="2.4"/><path d="M216,498 C200,482 180,474 154,470" stroke-width="1.6"/><path d="M382,498 C400,484 420,478 446,478" stroke-width="1.6"/><path d="M360,366 C376,372 392,386 404,404" stroke-width="1.4"/><path d="M242,326 C226,330 208,344 196,362" stroke-width="1.4"/></g>
<g stroke="#f0cf6e" stroke-width="1" fill="#f0cf6e"><line x1="299.7" y1="436.5" x2="306.9" y2="436.5"/><circle cx="306.9" cy="436.5" r="1.4"/><line x1="299.7" y1="429.6" x2="307.4" y2="429.5"/><circle cx="307.4" cy="429.5" r="1.4"/><line x1="299.7" y1="422.4" x2="307.3" y2="422.4"/><circle cx="307.3" cy="422.4" r="1.4"/><line x1="299.7" y1="415.1" x2="307.5" y2="415.2"/><circle cx="307.5" cy="415.2" r="1.4"/><line x1="299.8" y1="407.7" x2="292.8" y2="407.6"/><circle cx="292.8" cy="407.6" r="1.4"/><line x1="299.9" y1="400.2" x2="291.1" y2="400.0"/><circle cx="291.1" cy="400.0" r="1.4"/><line x1="300.0" y1="392.5" x2="291.7" y2="392.3"/><circle cx="291.7" cy="392.3" r="1.4"/><line x1="300.2" y1="384.7" x2="293.6" y2="384.6"/><circle cx="293.6" cy="384.6" r="1.4"/><line x1="300.3" y1="376.8" x2="293.3" y2="376.6"/><circle cx="293.3" cy="376.6" r="1.4"/><line x1="300.5" y1="368.8" x2="307.8" y2="369.0"/><circle cx="307.8" cy="369.0" r="1.4"/><line x1="300.7" y1="360.7" x2="307.8" y2="360.9"/><circle cx="307.8" cy="360.9" r="1.4"/><line x1="300.9" y1="352.5" x2="307.7" y2="352.7"/><circle cx="307.7" cy="352.7" r="1.4"/><line x1="301.1" y1="344.2" x2="292.5" y2="344.0"/><circle cx="292.5" cy="344.0" r="1.4"/><line x1="301.3" y1="335.9" x2="309.6" y2="336.1"/><circle cx="309.6" cy="336.1" r="1.4"/><line x1="301.5" y1="327.5" x2="308.1" y2="327.6"/><circle cx="308.1" cy="327.6" r="1.4"/><line x1="301.7" y1="319.0" x2="310.2" y2="319.2"/><circle cx="310.2" cy="319.2" r="1.4"/><line x1="301.8" y1="310.5" x2="294.0" y2="310.4"/><circle cx="294.0" cy="310.4" r="1.4"/><line x1="302.0" y1="302.0" x2="294.2" y2="301.8"/><circle cx="294.2" cy="301.8" r="1.4"/><line x1="302.1" y1="293.4" x2="295.0" y2="293.3"/><circle cx="295.0" cy="293.3" r="1.4"/><line x1="302.2" y1="284.7" x2="311.0" y2="284.8"/><circle cx="311.0" cy="284.8" r="1.4"/><line x1="302.3" y1="276.1" x2="310.3" y2="276.1"/><circle cx="310.3" cy="276.1" r="1.4"/><line x1="302.3" y1="267.4" x2="295.2" y2="267.4"/><circle cx="295.2" cy="267.4" r="1.4"/><line x1="302.2" y1="258.8" x2="293.5" y2="258.8"/><circle cx="293.5" cy="258.8" r="1.4"/><line x1="302.2" y1="250.1" x2="293.5" y2="250.2"/><circle cx="293.5" cy="250.2" r="1.4"/><line x1="302.1" y1="241.4" x2="293.7" y2="241.6"/><circle cx="293.7" cy="241.6" r="1.4"/><line x1="301.9" y1="232.8" x2="309.3" y2="232.6"/><circle cx="309.3" cy="232.6" r="1.4"/><line x1="301.6" y1="224.1" x2="310.2" y2="223.9"/><circle cx="310.2" cy="223.9" r="1.4"/><line x1="301.3" y1="215.5" x2="309.2" y2="215.2"/><circle cx="309.2" cy="215.2" r="1.4"/><line x1="301.0" y1="207.0" x2="294.0" y2="207.3"/><circle cx="294.0" cy="207.3" r="1.4"/><line x1="300.5" y1="198.5" x2="293.8" y2="198.9"/><circle cx="293.8" cy="198.9" r="1.4"/><line x1="309.7" y1="178.5" x2="315.2" y2="183.5"/><circle cx="315.2" cy="183.5" r="1.4"/><line x1="315.0" y1="173.0" x2="318.8" y2="176.8"/><circle cx="318.8" cy="176.8" r="1.4"/><line x1="320.6" y1="167.5" x2="324.9" y2="172.1"/><circle cx="324.9" cy="172.1" r="1.4"/><line x1="326.6" y1="162.0" x2="321.8" y2="156.7"/><circle cx="321.8" cy="156.7" r="1.4"/><line x1="333.0" y1="156.4" x2="336.5" y2="160.5"/><circle cx="336.5" cy="160.5" r="1.4"/><line x1="340.1" y1="150.6" x2="335.6" y2="145.1"/><circle cx="335.6" cy="145.1" r="1.4"/><line x1="347.7" y1="144.5" x2="351.1" y2="148.8"/><circle cx="351.1" cy="148.8" r="1.4"/><line x1="291.4" y1="177.4" x2="287.1" y2="180.7"/><circle cx="287.1" cy="180.7" r="1.4"/><line x1="286.5" y1="171.6" x2="281.1" y2="176.3"/><circle cx="281.1" cy="176.3" r="1.4"/><line x1="281.3" y1="165.8" x2="286.6" y2="160.7"/><circle cx="286.6" cy="160.7" r="1.4"/><line x1="275.6" y1="160.2" x2="271.1" y2="164.9"/><circle cx="271.1" cy="164.9" r="1.4"/><line x1="269.5" y1="154.4" x2="264.5" y2="160.0"/><circle cx="264.5" cy="160.0" r="1.4"/><line x1="262.9" y1="148.6" x2="266.3" y2="144.6"/><circle cx="266.3" cy="144.6" r="1.4"/><line x1="255.7" y1="142.5" x2="251.9" y2="147.0"/><circle cx="251.9" cy="147.0" r="1.4"/><line x1="301.2" y1="174.9" x2="307.1" y2="175.3"/><circle cx="307.1" cy="175.3" r="1.4"/><line x1="301.6" y1="167.3" x2="307.6" y2="167.6"/><circle cx="307.6" cy="167.6" r="1.4"/><line x1="302.0" y1="159.5" x2="306.9" y2="159.7"/><circle cx="306.9" cy="159.7" r="1.4"/><line x1="302.4" y1="151.5" x2="295.4" y2="151.2"/><circle cx="295.4" cy="151.2" r="1.4"/><line x1="302.8" y1="143.3" x2="296.9" y2="143.0"/><circle cx="296.9" cy="143.0" r="1.4"/><line x1="303.3" y1="134.8" x2="310.1" y2="135.3"/><circle cx="310.1" cy="135.3" r="1.4"/><line x1="341.5" y1="152.6" x2="342.8" y2="159.5"/><circle cx="342.8" cy="159.5" r="1.4"/><line x1="349.5" y1="151.8" x2="349.4" y2="146.8"/><circle cx="349.4" cy="146.8" r="1.4"/><line x1="358.5" y1="152.1" x2="359.0" y2="146.6"/><circle cx="359.0" cy="146.6" r="1.4"/><line x1="368.6" y1="153.5" x2="369.9" y2="146.9"/><circle cx="369.9" cy="146.9" r="1.4"/><line x1="258.8" y1="153.2" x2="259.1" y2="147.0"/><circle cx="259.1" cy="147.0" r="1.4"/><line x1="251.2" y1="153.3" x2="251.7" y2="159.3"/><circle cx="251.7" cy="159.3" r="1.4"/><line x1="243.2" y1="154.4" x2="242.0" y2="147.8"/><circle cx="242.0" cy="147.8" r="1.4"/><line x1="234.8" y1="156.3" x2="233.5" y2="151.0"/><circle cx="233.5" cy="151.0" r="1.4"/><line x1="225.8" y1="158.8" x2="227.8" y2="165.1"/><circle cx="227.8" cy="165.1" r="1.4"/><line x1="313.6" y1="393.3" x2="310.2" y2="387.0"/><circle cx="310.2" cy="387.0" r="1.4"/><line x1="320.0" y1="389.8" x2="322.7" y2="394.6"/><circle cx="322.7" cy="394.6" r="1.4"/><line x1="326.6" y1="386.1" x2="330.2" y2="392.5"/><circle cx="330.2" cy="392.5" r="1.4"/><line x1="333.2" y1="382.3" x2="336.8" y2="388.4"/><circle cx="336.8" cy="388.4" r="1.4"/><line x1="339.9" y1="378.3" x2="336.6" y2="373.0"/><circle cx="336.6" cy="373.0" r="1.4"/><line x1="346.6" y1="374.1" x2="343.8" y2="369.6"/><circle cx="343.8" cy="369.6" r="1.4"/><line x1="353.5" y1="369.8" x2="356.7" y2="374.8"/><circle cx="356.7" cy="374.8" r="1.4"/><line x1="360.4" y1="365.3" x2="357.5" y2="361.0"/><circle cx="357.5" cy="361.0" r="1.4"/><line x1="367.4" y1="360.6" x2="371.7" y2="367.0"/><circle cx="371.7" cy="367.0" r="1.4"/><line x1="374.4" y1="355.8" x2="371.1" y2="351.0"/><circle cx="371.1" cy="351.0" r="1.4"/><line x1="381.6" y1="350.7" x2="385.1" y2="355.6"/><circle cx="385.1" cy="355.6" r="1.4"/><line x1="388.7" y1="345.5" x2="392.7" y2="350.8"/><circle cx="392.7" cy="350.8" r="1.4"/><line x1="288.4" y1="353.0" x2="285.4" y2="358.4"/><circle cx="285.4" cy="358.4" r="1.4"/><line x1="281.9" y1="349.4" x2="285.3" y2="343.5"/><circle cx="285.3" cy="343.5" r="1.4"/><line x1="275.4" y1="345.7" x2="271.9" y2="351.8"/><circle cx="271.9" cy="351.8" r="1.4"/><line x1="268.7" y1="341.8" x2="266.0" y2="346.6"/><circle cx="266.0" cy="346.6" r="1.4"/><line x1="262.0" y1="337.9" x2="258.4" y2="343.9"/><circle cx="258.4" cy="343.9" r="1.4"/><line x1="255.1" y1="333.8" x2="258.4" y2="328.4"/><circle cx="258.4" cy="328.4" r="1.4"/><line x1="248.2" y1="329.5" x2="244.4" y2="335.5"/><circle cx="244.4" cy="335.5" r="1.4"/><line x1="241.1" y1="325.1" x2="243.9" y2="320.7"/><circle cx="243.9" cy="320.7" r="1.4"/><line x1="233.9" y1="320.5" x2="237.1" y2="315.6"/><circle cx="237.1" cy="315.6" r="1.4"/><line x1="226.6" y1="315.7" x2="230.2" y2="310.2"/><circle cx="230.2" cy="310.2" r="1.4"/><line x1="219.2" y1="310.7" x2="223.5" y2="304.4"/><circle cx="223.5" cy="304.4" r="1.4"/><line x1="211.7" y1="305.5" x2="207.7" y2="311.0"/><circle cx="207.7" cy="311.0" r="1.4"/><line x1="314.4" y1="291.8" x2="310.8" y2="286.5"/><circle cx="310.8" cy="286.5" r="1.4"/><line x1="320.8" y1="287.2" x2="317.3" y2="282.4"/><circle cx="317.3" cy="282.4" r="1.4"/><line x1="327.2" y1="282.3" x2="323.5" y2="277.7"/><circle cx="323.5" cy="277.7" r="1.4"/><line x1="333.5" y1="277.2" x2="328.9" y2="271.8"/><circle cx="328.9" cy="271.8" r="1.4"/><line x1="339.7" y1="271.7" x2="335.6" y2="267.2"/><circle cx="335.6" cy="267.2" r="1.4"/><line x1="345.9" y1="266.0" x2="350.1" y2="270.3"/><circle cx="350.1" cy="270.3" r="1.4"/><line x1="351.9" y1="259.9" x2="356.6" y2="264.5"/><circle cx="356.6" cy="264.5" r="1.4"/><line x1="358.0" y1="253.6" x2="362.6" y2="257.9"/><circle cx="362.6" cy="257.9" r="1.4"/><line x1="364.0" y1="246.9" x2="369.0" y2="251.3"/><circle cx="369.0" cy="251.3" r="1.4"/><line x1="288.0" y1="259.0" x2="292.6" y2="254.2"/><circle cx="292.6" cy="254.2" r="1.4"/><line x1="282.0" y1="253.2" x2="285.6" y2="249.6"/><circle cx="285.6" cy="249.6" r="1.4"/><line x1="276.0" y1="247.1" x2="271.4" y2="251.6"/><circle cx="271.4" cy="251.6" r="1.4"/><line x1="270.0" y1="240.8" x2="265.6" y2="244.9"/><circle cx="265.6" cy="244.9" r="1.4"/><line x1="264.0" y1="234.1" x2="267.9" y2="230.8"/><circle cx="267.9" cy="230.8" r="1.4"/><line x1="258.0" y1="227.2" x2="263.3" y2="222.8"/><circle cx="263.3" cy="222.8" r="1.4"/><line x1="252.0" y1="219.8" x2="246.9" y2="223.8"/><circle cx="246.9" cy="223.8" r="1.4"/><line x1="262.1" y1="475.2" x2="260.2" y2="470.0"/><circle cx="260.2" cy="470.0" r="1.4"/><line x1="255.1" y1="477.9" x2="257.4" y2="483.9"/><circle cx="257.4" cy="483.9" r="1.4"/><line x1="247.9" y1="480.6" x2="245.7" y2="475.0"/><circle cx="245.7" cy="475.0" r="1.4"/><line x1="240.7" y1="483.5" x2="242.7" y2="488.6"/><circle cx="242.7" cy="488.6" r="1.4"/><line x1="233.3" y1="486.5" x2="236.3" y2="493.7"/><circle cx="236.3" cy="493.7" r="1.4"/><line x1="225.8" y1="489.8" x2="223.4" y2="484.5"/><circle cx="223.4" cy="484.5" r="1.4"/><line x1="218.1" y1="493.2" x2="220.9" y2="499.5"/><circle cx="220.9" cy="499.5" r="1.4"/><line x1="210.2" y1="496.9" x2="212.6" y2="501.8"/><circle cx="212.6" cy="501.8" r="1.4"/><line x1="202.2" y1="500.8" x2="199.2" y2="495.0"/><circle cx="199.2" cy="495.0" r="1.4"/><line x1="194.0" y1="505.1" x2="197.5" y2="511.7"/><circle cx="197.5" cy="511.7" r="1.4"/><line x1="185.5" y1="509.7" x2="182.2" y2="503.8"/><circle cx="182.2" cy="503.8" r="1.4"/><line x1="176.9" y1="514.6" x2="180.1" y2="520.1"/><circle cx="180.1" cy="520.1" r="1.4"/><line x1="275.0" y1="489.9" x2="281.1" y2="493.0"/><circle cx="281.1" cy="493.0" r="1.4"/><line x1="271.5" y1="496.8" x2="265.5" y2="493.8"/><circle cx="265.5" cy="493.8" r="1.4"/><line x1="267.9" y1="503.8" x2="262.5" y2="501.0"/><circle cx="262.5" cy="501.0" r="1.4"/><line x1="264.4" y1="510.8" x2="271.1" y2="514.2"/><circle cx="271.1" cy="514.2" r="1.4"/><line x1="260.8" y1="518.0" x2="265.9" y2="520.6"/><circle cx="265.9" cy="520.6" r="1.4"/><line x1="257.1" y1="525.3" x2="262.9" y2="528.2"/><circle cx="262.9" cy="528.2" r="1.4"/><line x1="253.4" y1="532.9" x2="247.0" y2="529.8"/><circle cx="247.0" cy="529.8" r="1.4"/><line x1="249.7" y1="540.7" x2="244.3" y2="538.2"/><circle cx="244.3" cy="538.2" r="1.4"/><line x1="245.8" y1="548.8" x2="252.0" y2="551.6"/><circle cx="252.0" cy="551.6" r="1.4"/><line x1="242.0" y1="557.2" x2="247.1" y2="559.6"/><circle cx="247.1" cy="559.6" r="1.4"/><line x1="338.4" y1="475.4" x2="340.9" y2="469.2"/><circle cx="340.9" cy="469.2" r="1.4"/><line x1="345.4" y1="478.4" x2="348.4" y2="471.4"/><circle cx="348.4" cy="471.4" r="1.4"/><line x1="352.4" y1="481.5" x2="355.4" y2="475.2"/><circle cx="355.4" cy="475.2" r="1.4"/><line x1="359.4" y1="484.8" x2="362.1" y2="479.4"/><circle cx="362.1" cy="479.4" r="1.4"/><line x1="366.5" y1="488.4" x2="363.9" y2="493.3"/><circle cx="363.9" cy="493.3" r="1.4"/><line x1="373.5" y1="492.2" x2="376.3" y2="487.3"/><circle cx="376.3" cy="487.3" r="1.4"/><line x1="380.6" y1="496.4" x2="377.7" y2="501.1"/><circle cx="377.7" cy="501.1" r="1.4"/><line x1="387.8" y1="500.8" x2="391.9" y2="494.3"/><circle cx="391.9" cy="494.3" r="1.4"/><line x1="395.1" y1="505.5" x2="398.9" y2="499.8"/><circle cx="398.9" cy="499.8" r="1.4"/><line x1="402.6" y1="510.5" x2="398.8" y2="516.0"/><circle cx="398.8" cy="516.0" r="1.4"/><line x1="410.2" y1="516.0" x2="406.7" y2="520.8"/><circle cx="406.7" cy="520.8" r="1.4"/><line x1="418.0" y1="521.8" x2="414.0" y2="527.1"/><circle cx="414.0" cy="527.1" r="1.4"/><line x1="321.0" y1="492.0" x2="327.9" y2="489.6"/><circle cx="327.9" cy="489.6" r="1.4"/><line x1="323.6" y1="499.1" x2="330.3" y2="496.7"/><circle cx="330.3" cy="496.7" r="1.4"/><line x1="326.1" y1="506.3" x2="319.4" y2="508.8"/><circle cx="319.4" cy="508.8" r="1.4"/><line x1="328.8" y1="513.6" x2="334.7" y2="511.4"/><circle cx="334.7" cy="511.4" r="1.4"/><line x1="331.5" y1="521.0" x2="325.7" y2="523.1"/><circle cx="325.7" cy="523.1" r="1.4"/><line x1="334.3" y1="528.6" x2="340.0" y2="526.5"/><circle cx="340.0" cy="526.5" r="1.4"/><line x1="337.2" y1="536.4" x2="331.6" y2="538.4"/><circle cx="331.6" cy="538.4" r="1.4"/><line x1="340.2" y1="544.4" x2="346.1" y2="542.2"/><circle cx="346.1" cy="542.2" r="1.4"/><line x1="343.3" y1="552.6" x2="337.1" y2="555.0"/><circle cx="337.1" cy="555.0" r="1.4"/><line x1="346.6" y1="561.2" x2="339.7" y2="563.8"/><circle cx="339.7" cy="563.8" r="1.4"/><line x1="203.2" y1="487.4" x2="199.8" y2="492.6"/><circle cx="199.8" cy="492.6" r="1.4"/><line x1="196.2" y1="483.2" x2="199.2" y2="477.7"/><circle cx="199.2" cy="477.7" r="1.4"/><line x1="188.8" y1="479.5" x2="191.5" y2="473.2"/><circle cx="191.5" cy="473.2" r="1.4"/><line x1="180.8" y1="476.4" x2="182.6" y2="471.2"/><circle cx="182.6" cy="471.2" r="1.4"/><line x1="172.4" y1="473.8" x2="171.1" y2="478.6"/><circle cx="171.1" cy="478.6" r="1.4"/><line x1="163.5" y1="471.7" x2="162.1" y2="478.6"/><circle cx="162.1" cy="478.6" r="1.4"/><line x1="395.9" y1="489.0" x2="392.9" y2="483.2"/><circle cx="392.9" cy="483.2" r="1.4"/><line x1="403.3" y1="485.5" x2="405.8" y2="491.6"/><circle cx="405.8" cy="491.6" r="1.4"/><line x1="411.0" y1="482.8" x2="412.6" y2="488.0"/><circle cx="412.6" cy="488.0" r="1.4"/><line x1="419.1" y1="480.6" x2="418.0" y2="475.4"/><circle cx="418.0" cy="475.4" r="1.4"/><line x1="427.6" y1="479.2" x2="428.3" y2="484.8"/><circle cx="428.3" cy="484.8" r="1.4"/><line x1="436.5" y1="478.3" x2="436.2" y2="472.7"/><circle cx="436.2" cy="472.7" r="1.4"/><line x1="373.6" y1="373.0" x2="370.3" y2="378.1"/><circle cx="370.3" cy="378.1" r="1.4"/><line x1="380.3" y1="377.8" x2="376.6" y2="382.3"/><circle cx="376.6" cy="382.3" r="1.4"/><line x1="386.7" y1="383.4" x2="382.7" y2="387.6"/><circle cx="382.7" cy="387.6" r="1.4"/><line x1="392.8" y1="389.6" x2="397.1" y2="385.8"/><circle cx="397.1" cy="385.8" r="1.4"/><line x1="398.6" y1="396.5" x2="402.5" y2="393.5"/><circle cx="402.5" cy="393.5" r="1.4"/><line x1="228.0" y1="331.7" x2="225.6" y2="327.6"/><circle cx="225.6" cy="327.6" r="1.4"/><line x1="221.0" y1="336.2" x2="217.4" y2="331.2"/><circle cx="217.4" cy="331.2" r="1.4"/><line x1="214.1" y1="341.5" x2="218.4" y2="346.5"/><circle cx="218.4" cy="346.5" r="1.4"/><line x1="207.6" y1="347.7" x2="202.8" y2="343.0"/><circle cx="202.8" cy="343.0" r="1.4"/><line x1="201.5" y1="354.5" x2="206.8" y2="358.8"/><circle cx="206.8" cy="358.8" r="1.4"/></g>
<path d="M300,440 C290,462 276,478 268,492 C288,503 312,503 332,492 C324,478 310,462 300,440 Z" fill="#f6dc8a"/>
<g fill="none" stroke="#f0cf6e" stroke-width="2.4"><path d="M300,500 C298,540 302,580 300,622"/><path d="M300,560 C318,572 334,586 350,606" stroke-width="1.4"/><path d="M300,590 C284,600 270,610 256,626" stroke-width="1.4"/></g>
</g>
<circle cx="356" cy="138" r="7" fill="#ffe7a3" opacity=".55" filter="url(#cer-halo)"/>
<circle cx="356" cy="138" r="2.4" fill="#fff4d0"/>
<circle cx="216" cy="162" r="7" fill="#ffe7a3" opacity=".55" filter="url(#cer-halo)"/>
<circle cx="216" cy="162" r="2.4" fill="#fff4d0"/>
<circle cx="396" cy="340" r="7" fill="#ffe7a3" opacity=".55" filter="url(#cer-halo)"/>
<circle cx="396" cy="340" r="2.4" fill="#fff4d0"/>
<circle cx="204" cy="300" r="7" fill="#ffe7a3" opacity=".55" filter="url(#cer-halo)"/>
<circle cx="204" cy="300" r="2.4" fill="#fff4d0"/>
<circle cx="168" cy="520" r="7" fill="#ffe7a3" opacity=".55" filter="url(#cer-halo)"/>
<circle cx="168" cy="520" r="2.4" fill="#fff4d0"/>
<circle cx="426" cy="528" r="7" fill="#ffe7a3" opacity=".55" filter="url(#cer-halo)"/>
<circle cx="426" cy="528" r="2.4" fill="#fff4d0"/>
<circle cx="350" cy="606" r="7" fill="#ffe7a3" opacity=".55" filter="url(#cer-halo)"/>
<circle cx="350" cy="606" r="2.4" fill="#fff4d0"/>
<circle cx="256" cy="626" r="7" fill="#ffe7a3" opacity=".55" filter="url(#cer-halo)"/>
<circle cx="256" cy="626" r="2.4" fill="#fff4d0"/>
<circle cx="370" cy="240" r="7" fill="#ffe7a3" opacity=".55" filter="url(#cer-halo)"/>
<circle cx="370" cy="240" r="2.4" fill="#fff4d0"/>
<circle cx="246" cy="212" r="7" fill="#ffe7a3" opacity=".55" filter="url(#cer-halo)"/>
<circle cx="246" cy="212" r="2.4" fill="#fff4d0"/>
<rect x="22" y="22" width="556" height="856" fill="none" stroke="#c9a44a" stroke-width="3"/>
<rect x="34" y="34" width="532" height="832" fill="none" stroke="#c9a44a" stroke-width="1" opacity=".8"/>
<text x="300" y="92" text-anchor="middle" font-family="Georgia, serif" font-size="24" fill="#e2c46a" letter-spacing="6">CUERPO HUMANO</text>
<rect x="210" y="110" width="180" height="2" fill="#e2c46a" opacity=".7"/>
<text x="300" y="712" text-anchor="middle" font-family="Georgia, serif" font-size="84" font-weight="bold" fill="#f3efe4" letter-spacing="1">El cerebro</text>
<text x="300" y="762" text-anchor="middle" font-family="Georgia, serif" font-size="27" font-style="italic" fill="#dccdf0">De las neuronas de Cajal</text>
<text x="300" y="798" text-anchor="middle" font-family="Georgia, serif" font-size="27" font-style="italic" fill="#dccdf0">al misterio de la conciencia</text>
<text x="300" y="850" text-anchor="middle" font-family="Georgia, serif" font-size="20" fill="#b9a6d6" letter-spacing="4">BIBLIOTECA</text>
</svg>